<svg xmlns="http://www.w3.org/2000/svg" width="504.031" height="150" viewBox="0 0 504.031 150">
  <g id="Footer_logo" data-name="Footer logo" transform="translate(11619.53 7963.166)">
    <g id="textlogo" transform="translate(-11445.5 -7934.999)">
      <g id="eClassify_text">
        <rect id="safearea" width="330" height="79.029" transform="translate(0 7.319)" fill="none"/>
        <g id="final_logo" data-name="final logo">
          <g id="Text">
            <g id="Group_4236" data-name="Group 4236">
              <path id="Path_16342" data-name="Path 16342" d="M311.717,139.256a21.738,21.738,0,0,1-10.639-2.555,18.7,18.7,0,0,1-7.285-7.054,20.065,20.065,0,0,1-2.633-10.328,21.262,21.262,0,0,1,2.489-10.4,18.173,18.173,0,0,1,6.888-7.053,19.738,19.738,0,0,1,10.1-2.555,17.981,17.981,0,0,1,9.665,2.483,16.194,16.194,0,0,1,6.167,6.838,22.6,22.6,0,0,1,2.128,10.04,3.009,3.009,0,0,1-.938,2.267,3.3,3.3,0,0,1-2.38.9h-29.07V116.08h28.852L322.1,118.1a15.375,15.375,0,0,0-1.443-6.442,10.518,10.518,0,0,0-10.026-6.154,13.152,13.152,0,0,0-7.033,1.8,11.6,11.6,0,0,0-4.436,4.93,16.074,16.074,0,0,0-1.515,7.089,13.751,13.751,0,0,0,1.8,7.053,13.161,13.161,0,0,0,4.977,4.894,14.512,14.512,0,0,0,7.285,1.8,13.711,13.711,0,0,0,4.58-.828,14.239,14.239,0,0,0,3.787-1.907,4.1,4.1,0,0,1,2.344-.828,3.157,3.157,0,0,1,2.2.756,3.408,3.408,0,0,1,1.3,2.375,2.551,2.551,0,0,1-1.154,2.231,19.96,19.96,0,0,1-6.1,3.167,21.849,21.849,0,0,1-6.96,1.224Z" transform="translate(-291.16 -82.036)" fill="#fff"/>
              <path id="Path_16343" data-name="Path 16343" d="M393.762,128.162a27.222,27.222,0,0,1-19.8-8.313,28.427,28.427,0,0,1-5.915-9.177A30.007,30.007,0,0,1,365.92,99.3a29.366,29.366,0,0,1,2.128-11.264,28.526,28.526,0,0,1,5.915-9.141,27.745,27.745,0,0,1,8.836-6.154,26.819,26.819,0,0,1,10.964-2.231,28.309,28.309,0,0,1,9.557,1.439,27.512,27.512,0,0,1,8.043,4.75,4,4,0,0,1,.9.9,2.724,2.724,0,0,1,.433.936,5.011,5.011,0,0,1,.108,1.116,2.955,2.955,0,0,1-.974,2.267,3.755,3.755,0,0,1-5.013.108A21.4,21.4,0,0,0,401.3,78.5a19.379,19.379,0,0,0-7.538-1.224A18.91,18.91,0,0,0,385.756,79a21.146,21.146,0,0,0-6.6,4.75,21.921,21.921,0,0,0-4.436,7.018,22.888,22.888,0,0,0-1.587,8.529,23.263,23.263,0,0,0,1.587,8.6,21.922,21.922,0,0,0,4.436,7.018,20.661,20.661,0,0,0,6.6,4.714,19.826,19.826,0,0,0,14.967.432,26.859,26.859,0,0,0,6.311-3.491,3.8,3.8,0,0,1,2.561-.828,3.241,3.241,0,0,1,2.128,1.008,3.433,3.433,0,0,1,.866,2.483,3.578,3.578,0,0,1-.288,1.4,3.941,3.941,0,0,1-.866,1.26,29.032,29.032,0,0,1-8.331,4.678,27.575,27.575,0,0,1-9.341,1.583Z" transform="translate(-320.983 -70.51)" fill="#fff"/>
              <path id="Path_16344" data-name="Path 16344" d="M470.7,127.922a9.527,9.527,0,0,1-5.626-1.727,11.473,11.473,0,0,1-3.823-4.714,16.32,16.32,0,0,1-1.37-6.874v-39.3a3.608,3.608,0,1,1,7.213,0v39.3A8.6,8.6,0,0,0,468.1,119a2.972,2.972,0,0,0,2.6,1.727h1.8a3,3,0,0,1,2.344,1.008,3.739,3.739,0,0,1,.9,2.591,3.085,3.085,0,0,1-1.37,2.591,5.817,5.817,0,0,1-3.534,1.008Z" transform="translate(-358.465 -70.99)" fill="#fff"/>
              <path id="Path_16345" data-name="Path 16345" d="M509.785,139.256a17.4,17.4,0,0,1-9.449-2.627,18.686,18.686,0,0,1-6.6-7.126,21.18,21.18,0,0,1-2.416-10.184,19.978,19.978,0,0,1,2.633-10.22,19.453,19.453,0,0,1,7.141-7.161,20.791,20.791,0,0,1,20.233,0,19.539,19.539,0,0,1,7.1,7.161,19.978,19.978,0,0,1,2.633,10.22h-2.813a21.179,21.179,0,0,1-2.416,10.184,18.688,18.688,0,0,1-6.6,7.126,17.4,17.4,0,0,1-9.446,2.627Zm1.443-6.478a12.333,12.333,0,0,0,6.564-1.763,12.548,12.548,0,0,0,4.544-4.822,14.181,14.181,0,0,0,1.659-6.874,14.465,14.465,0,0,0-1.659-6.946,12.548,12.548,0,0,0-4.544-4.822,13.031,13.031,0,0,0-13.092,0,12.728,12.728,0,0,0-4.616,4.822,14.087,14.087,0,0,0-1.7,6.946,13.811,13.811,0,0,0,1.7,6.874,12.728,12.728,0,0,0,4.616,4.822A12.386,12.386,0,0,0,511.228,132.778Zm16.157,6.262a3.572,3.572,0,0,1-3.679-3.671V124.357l1.37-7.629,5.987,2.591v16.05a3.572,3.572,0,0,1-3.679,3.671Z" transform="translate(-371.007 -82.036)" fill="#fff"/>
              <path id="Path_16346" data-name="Path 16346" d="M588.318,139.256a27.347,27.347,0,0,1-9.341-1.547,17.9,17.9,0,0,1-6.672-3.923,3.13,3.13,0,0,1-.9-2.627,3.46,3.46,0,0,1,1.406-2.411,3.765,3.765,0,0,1,2.849-.972,3.906,3.906,0,0,1,2.416,1.26,11.443,11.443,0,0,0,3.931,2.555,14.826,14.826,0,0,0,6.023,1.188,12.19,12.19,0,0,0,6.383-1.367,4.234,4.234,0,0,0,2.272-3.527,4.394,4.394,0,0,0-2.056-3.743q-2.128-1.583-7.754-2.591-7.285-1.439-10.567-4.318a9.031,9.031,0,0,1-3.282-7.053,8.764,8.764,0,0,1,2.164-6.082,13.133,13.133,0,0,1,5.554-3.6,21.227,21.227,0,0,1,7.069-1.188,22.06,22.06,0,0,1,8.439,1.511A14.39,14.39,0,0,1,602.094,105a3.316,3.316,0,0,1,.938,2.411,2.787,2.787,0,0,1-1.226,2.123,3.543,3.543,0,0,1-2.741.5,5.176,5.176,0,0,1-2.669-1.3,9.83,9.83,0,0,0-3.9-2.375,16.361,16.361,0,0,0-4.833-.648,12.116,12.116,0,0,0-5.374,1.08,3.411,3.411,0,0,0-2.2,3.167,4.168,4.168,0,0,0,.685,2.339,5.77,5.77,0,0,0,2.7,1.871,34.785,34.785,0,0,0,5.915,1.619,32.215,32.215,0,0,1,8.547,2.735,11.4,11.4,0,0,1,4.508,3.851,9.382,9.382,0,0,1,1.37,5.074,10.564,10.564,0,0,1-1.767,5.974,12.145,12.145,0,0,1-5.193,4.247A20.36,20.36,0,0,1,588.318,139.256Z" transform="translate(-402.943 -82.036)" fill="#fff"/>
              <path id="Path_16347" data-name="Path 16347" d="M653.477,139.256a27.345,27.345,0,0,1-9.341-1.547,17.907,17.907,0,0,1-6.672-3.923,3.131,3.131,0,0,1-.9-2.627,3.461,3.461,0,0,1,1.406-2.411,3.766,3.766,0,0,1,2.849-.972,3.906,3.906,0,0,1,2.416,1.26,11.439,11.439,0,0,0,3.931,2.555,14.823,14.823,0,0,0,6.023,1.188,12.189,12.189,0,0,0,6.383-1.367,4.234,4.234,0,0,0,2.272-3.527,4.394,4.394,0,0,0-2.056-3.743q-2.128-1.583-7.754-2.591-7.285-1.439-10.567-4.318a9.031,9.031,0,0,1-3.282-7.053,8.764,8.764,0,0,1,2.164-6.082,13.131,13.131,0,0,1,5.554-3.6,21.228,21.228,0,0,1,7.069-1.188,22.058,22.058,0,0,1,8.439,1.511A14.392,14.392,0,0,1,667.254,105a3.316,3.316,0,0,1,.937,2.411,2.786,2.786,0,0,1-1.226,2.123,3.543,3.543,0,0,1-2.741.5,5.175,5.175,0,0,1-2.669-1.3,9.831,9.831,0,0,0-3.9-2.375,16.36,16.36,0,0,0-4.833-.648,12.117,12.117,0,0,0-5.374,1.08,3.411,3.411,0,0,0-2.2,3.167,4.17,4.17,0,0,0,.685,2.339,5.769,5.769,0,0,0,2.7,1.871,34.792,34.792,0,0,0,5.915,1.619,32.211,32.211,0,0,1,8.547,2.735,11.4,11.4,0,0,1,4.508,3.851,9.378,9.378,0,0,1,1.371,5.074,10.565,10.565,0,0,1-1.767,5.974,12.146,12.146,0,0,1-5.194,4.247,20.36,20.36,0,0,1-8.547,1.583Z" transform="translate(-428.936 -82.036)" fill="#fff"/>
              <path id="Path_16348" data-name="Path 16348" d="M710.161,82.771a4.8,4.8,0,1,1,3.354-1.4,4.583,4.583,0,0,1-3.354,1.4Zm0,45.776a3.572,3.572,0,0,1-3.679-3.671V92.847a3.529,3.529,0,0,1,1.046-2.663,3.643,3.643,0,0,1,2.633-1.008,3.689,3.689,0,0,1,2.669,1.008,3.6,3.6,0,0,1,1.01,2.663v32.029a3.627,3.627,0,0,1-1.01,2.627,3.544,3.544,0,0,1-2.669,1.043Z" transform="translate(-456.407 -71.615)" fill="#fff"/>
              <path id="Path_16349" data-name="Path 16349" d="M736.02,96.181a3.478,3.478,0,0,1-2.453-.864,2.814,2.814,0,0,1-.938-2.159,2.981,2.981,0,0,1,.938-2.3,3.478,3.478,0,0,1,2.453-.864h17.816a3.478,3.478,0,0,1,2.453.864,2.981,2.981,0,0,1,.938,2.3,2.814,2.814,0,0,1-.937,2.159,3.478,3.478,0,0,1-2.453.864Zm6.636,31.741a3.569,3.569,0,0,1-3.534-3.671V88.768a18.7,18.7,0,0,1,2.056-9,14.838,14.838,0,0,1,5.734-5.938,16.72,16.72,0,0,1,8.511-2.123,3.8,3.8,0,0,1,2.633.936,3.047,3.047,0,0,1,1.046,2.375,3.008,3.008,0,0,1-1.046,2.339,3.717,3.717,0,0,1-2.633.972,8.869,8.869,0,0,0-4.689,1.224,8.366,8.366,0,0,0-3.137,3.383,10.978,10.978,0,0,0-1.118,5.11v36.2a3.6,3.6,0,0,1-1.01,2.663,3.807,3.807,0,0,1-2.813,1.013Z" transform="translate(-467.269 -70.99)" fill="#fff"/>
              <path id="Path_16350" data-name="Path 16350" d="M797.986,137.557a3.3,3.3,0,0,1-2.561.108,3.719,3.719,0,0,1-1.911-1.835L777,104.52a2.923,2.923,0,0,1-.18-2.627,3.421,3.421,0,0,1,1.911-1.835,3.29,3.29,0,0,1,4.472,1.727L799,133.094a4.272,4.272,0,0,1,.541,2.627,2.3,2.3,0,0,1-1.555,1.836Zm-8.511,18.857a4.549,4.549,0,0,1-1.731-.432q-3.174-1.44-1.731-4.534l22-49.59q1.442-3.023,4.544-1.727,3.246,1.368,1.8,4.534l-22.072,49.518a2.954,2.954,0,0,1-2.81,2.231Z" transform="translate(-484.803 -82.208)" fill="#fff"/>
            </g>
            <g id="Group_4237" data-name="Group 4237" transform="translate(40.525 72.982)">
              <path id="Path_16351" data-name="Path 16351" d="M360.678,192.19a.553.553,0,0,1,.493.276.585.585,0,0,1,.012.588,5.037,5.037,0,0,0-.421,1.278,2.691,2.691,0,0,0-.012.876c.042.246.1.474.162.7a2.654,2.654,0,0,1,.1.756,1.083,1.083,0,0,1-.349.816,1.149,1.149,0,0,1-.83.336,1.057,1.057,0,0,1-.926-.5,2.24,2.24,0,0,1-.325-1.248,3.876,3.876,0,0,1,.21-1.152,8.94,8.94,0,0,1,.529-1.278A4.864,4.864,0,0,1,360,192.6.979.979,0,0,1,360.678,192.19Zm2.963,0a.553.553,0,0,1,.493.276.586.586,0,0,1,.012.588,5.037,5.037,0,0,0-.421,1.278,2.7,2.7,0,0,0-.012.876c.048.246.1.474.162.7a2.653,2.653,0,0,1,.1.756,1.083,1.083,0,0,1-.349.816,1.159,1.159,0,0,1-.83.336,1.057,1.057,0,0,1-.926-.5,2.24,2.24,0,0,1-.325-1.248,3.88,3.88,0,0,1,.21-1.152,9.7,9.7,0,0,1,.529-1.278,4.86,4.86,0,0,1,.685-1.038.991.991,0,0,1,.672-.41Z" transform="translate(-358.58 -192.19)" fill="#fff"/>
              <path id="Path_16352" data-name="Path 16352" d="M375.328,209.013a.984.984,0,0,1-1-1V195.026a.957.957,0,0,1,.289-.72.976.976,0,0,1,.709-.276h4.6a4.924,4.924,0,0,1,2.3.51,3.931,3.931,0,0,1,1.557,1.41,3.811,3.811,0,0,1,.565,2.075,2.943,2.943,0,0,1-.511,1.7,3.586,3.586,0,0,1-1.394,1.2,3.715,3.715,0,0,1,2.038,1.212,3.528,3.528,0,0,1,.769,2.363,4.283,4.283,0,0,1-2.368,3.941,5.445,5.445,0,0,1-2.561.588h-5Zm1-8.829h3.6a2.859,2.859,0,0,0,1.8-.54,1.922,1.922,0,0,0,.7-1.631,1.884,1.884,0,0,0-.7-1.619,2.9,2.9,0,0,0-1.8-.528h-3.595Zm0,6.988h4a3.734,3.734,0,0,0,1.557-.306,2.425,2.425,0,0,0,1.058-.9,2.644,2.644,0,0,0,.385-1.475,2.267,2.267,0,0,0-.385-1.361,2.378,2.378,0,0,0-1.058-.816,4.051,4.051,0,0,0-1.557-.276h-4v5.146Z" transform="translate(-364.863 -192.926)" fill="#fff"/>
              <path id="Path_16353" data-name="Path 16353" d="M404.634,212.09a4.907,4.907,0,0,1-2.374-.564,4.079,4.079,0,0,1-1.653-1.661,5.5,5.5,0,0,1-.607-2.687v-4.72a.945.945,0,0,1,.98-.978.976.976,0,0,1,.7.276.948.948,0,0,1,.276.7v4.72a3.5,3.5,0,0,0,.4,1.775,2.528,2.528,0,0,0,1.094,1.038,3.55,3.55,0,0,0,1.557.336A3.173,3.173,0,0,0,406.48,210a2.68,2.68,0,0,0,1.028-.882,2.172,2.172,0,0,0,.385-1.248h1.214a4.03,4.03,0,0,1-.589,2.147,4.222,4.222,0,0,1-1.6,1.517,4.68,4.68,0,0,1-2.3.558Zm4.25-.1a.945.945,0,0,1-.98-.978v-8.559a.934.934,0,0,1,.276-.708,1.059,1.059,0,0,1,1.413,0,.953.953,0,0,1,.27.708v8.559a.967.967,0,0,1-.27.7.939.939,0,0,1-.709.282Z" transform="translate(-375.103 -195.908)" fill="#fff"/>
              <path id="Path_16354" data-name="Path 16354" d="M428.49,211.567a.883.883,0,0,1-.685.03,1.009,1.009,0,0,1-.511-.492l-4.406-8.349a.788.788,0,0,1-.048-.7.915.915,0,0,1,.511-.492.873.873,0,0,1,1.191.462l4.214,8.349a1.178,1.178,0,0,1,.144.7.612.612,0,0,1-.415.492Zm-2.272,5.026a1.2,1.2,0,0,1-.463-.114.805.805,0,0,1-.463-1.212l5.867-13.225a.838.838,0,0,1,1.214-.462.8.8,0,0,1,.481,1.212L426.969,216a.788.788,0,0,1-.752.594Z" transform="translate(-384.19 -195.907)" fill="#fff"/>
              <path id="Path_16355" data-name="Path 16355" d="M461.035,209.036a4.811,4.811,0,0,1-2.134-.45,3.377,3.377,0,0,1-1.431-1.284,3.746,3.746,0,0,1-.511-2,3.6,3.6,0,0,1,.884-2.363,16.38,16.38,0,0,1,2.326-2.207l1.6-1.266a4.567,4.567,0,0,0,1.31-1.422,3.16,3.16,0,0,0,.307-1.266,1.772,1.772,0,0,0-1.9-1.8,1.889,1.889,0,0,0-1.364.5,1.583,1.583,0,0,0-.517,1.17,2.273,2.273,0,0,0,.222.978,3.573,3.573,0,0,0,.721.978l8.752,8.715a1.114,1.114,0,0,1,.349.576.693.693,0,0,1-.27.576.774.774,0,0,1-1.232,0l-8.848-8.811a5.1,5.1,0,0,1-1-1.409,3.678,3.678,0,0,1-.349-1.565,3.088,3.088,0,0,1,.463-1.661,3.251,3.251,0,0,1,1.268-1.164,4.07,4.07,0,0,1,3.649.024,3.35,3.35,0,0,1,1.262,1.212,3.288,3.288,0,0,1,.463,1.727,3.436,3.436,0,0,1-.259,1.362,4.217,4.217,0,0,1-.8,1.2,12.963,12.963,0,0,1-1.406,1.278l-1.521,1.212a11.335,11.335,0,0,0-1.172,1.056,4.977,4.977,0,0,0-.817,1.1,2.552,2.552,0,0,0-.3,1.2,2.077,2.077,0,0,0,.6,1.619,2.375,2.375,0,0,0,1.671.546,3.727,3.727,0,0,0,2.008-.528,8.968,8.968,0,0,0,1.743-1.451l2.807-2.957a1.354,1.354,0,0,1,.541-.384.59.59,0,0,1,.559.21.866.866,0,0,1,.319.594.941.941,0,0,1-.277.636l-2.807,2.957a9.508,9.508,0,0,1-2.176,1.853,5.071,5.071,0,0,1-2.711.72Z" transform="translate(-397.825 -192.686)" fill="#fff"/>
              <path id="Path_16356" data-name="Path 16356" d="M502.108,209.085a7.064,7.064,0,0,1-2.344-.384,6.024,6.024,0,0,1-1.941-1.074,4.224,4.224,0,0,1-1.214-1.6.756.756,0,0,1,.012-.75,1.057,1.057,0,0,1,1.37-.336,1.188,1.188,0,0,1,.511.546,2.568,2.568,0,0,0,.758.882,4.428,4.428,0,0,0,1.28.654,4.921,4.921,0,0,0,1.575.252,4.868,4.868,0,0,0,1.7-.288,3.083,3.083,0,0,0,1.262-.834,1.989,1.989,0,0,0,.481-1.356,2.523,2.523,0,0,0-.8-1.823,4.226,4.226,0,0,0-2.627-1,6.6,6.6,0,0,1-3.751-1.4,3.654,3.654,0,0,1-1.364-2.9,3.3,3.3,0,0,1,.709-2.147,4.407,4.407,0,0,1,1.935-1.343,7.67,7.67,0,0,1,2.723-.462,5.9,5.9,0,0,1,2.05.324,4.777,4.777,0,0,1,1.527.9,5.981,5.981,0,0,1,1.136,1.362,1.2,1.2,0,0,1,.223.8.791.791,0,0,1-.373.588.891.891,0,0,1-.787.1,1.111,1.111,0,0,1-.637-.5,3.442,3.442,0,0,0-.751-.942,3.363,3.363,0,0,0-1.04-.606,3.981,3.981,0,0,0-1.407-.222,4.638,4.638,0,0,0-2.386.528,1.8,1.8,0,0,0-.962,1.679,2.226,2.226,0,0,0,.3,1.1,2.4,2.4,0,0,0,1.094.912,7.082,7.082,0,0,0,2.3.54,6.087,6.087,0,0,1,3.57,1.392,3.931,3.931,0,0,1,1.28,3.059,3.837,3.837,0,0,1-.451,1.9A4.1,4.1,0,0,1,505.853,208a5.354,5.354,0,0,1-1.731.816,7.471,7.471,0,0,1-2.008.27Z" transform="translate(-413.604 -192.806)" fill="#fff"/>
              <path id="Path_16357" data-name="Path 16357" d="M527.362,212.018a5.787,5.787,0,0,1-2.837-.684,4.965,4.965,0,0,1-1.942-1.883,5.332,5.332,0,0,1-.7-2.753,5.689,5.689,0,0,1,.661-2.771,4.862,4.862,0,0,1,1.839-1.883,5.241,5.241,0,0,1,2.693-.684,4.832,4.832,0,0,1,2.579.66,4.36,4.36,0,0,1,1.647,1.823,6.016,6.016,0,0,1,.565,2.675.8.8,0,0,1-.252.606.877.877,0,0,1-.637.24H523.22v-1.535h7.694l-.788.54a4.019,4.019,0,0,0-.385-1.715,2.814,2.814,0,0,0-2.675-1.643,3.514,3.514,0,0,0-1.875.48,3.1,3.1,0,0,0-1.184,1.314,4.278,4.278,0,0,0-.4,1.889,3.708,3.708,0,0,0,.481,1.883,3.517,3.517,0,0,0,1.329,1.308,3.836,3.836,0,0,0,1.941.48,3.578,3.578,0,0,0,1.22-.222,3.949,3.949,0,0,0,1.01-.51,1.115,1.115,0,0,1,.625-.222.843.843,0,0,1,.589.2.936.936,0,0,1,.349.636.68.68,0,0,1-.306.594,5.308,5.308,0,0,1-1.623.846,5.883,5.883,0,0,1-1.857.324Z" transform="translate(-423.723 -195.86)" fill="#fff"/>
              <path id="Path_16358" data-name="Path 16358" d="M548.091,209a2.562,2.562,0,0,1-1.5-.462,3.046,3.046,0,0,1-1.022-1.26,4.3,4.3,0,0,1-.367-1.835V194.97a.962.962,0,0,1,1.924,0v10.478a2.276,2.276,0,0,0,.271,1.17.8.8,0,0,0,.691.462h.481a.8.8,0,0,1,.625.27.985.985,0,0,1,.24.69.816.816,0,0,1-.367.69,1.555,1.555,0,0,1-.944.27h-.036Z" transform="translate(-433.026 -192.918)" fill="#fff"/>
              <path id="Path_16359" data-name="Path 16359" d="M560.891,209a2.561,2.561,0,0,1-1.5-.462,3.046,3.046,0,0,1-1.022-1.26,4.3,4.3,0,0,1-.367-1.835V194.97a.962.962,0,1,1,1.924,0v10.478a2.277,2.277,0,0,0,.271,1.17.8.8,0,0,0,.691.462h.481a.8.8,0,0,1,.625.27.987.987,0,0,1,.24.69.816.816,0,0,1-.367.69,1.556,1.556,0,0,1-.944.27h-.036Z" transform="translate(-438.132 -192.918)" fill="#fff"/>
              <path id="Path_16360" data-name="Path 16360" d="M582.693,209.009a.926.926,0,0,1-.83-.462.994.994,0,0,1-.06-.978l5.4-12.877a.973.973,0,0,1,.944-.672.933.933,0,0,1,.944.672l5.422,12.919a1.022,1.022,0,0,1-.066.972.927.927,0,0,1-.835.432,1.018,1.018,0,0,1-.547-.162.885.885,0,0,1-.373-.45l-4.772-11.822h.541L583.619,208.4a.971.971,0,0,1-.4.462,1.035,1.035,0,0,1-.529.156Zm1.022-3.3.769-1.65h7.537l.769,1.65Z" transform="translate(-447.587 -192.922)" fill="#fff"/>
              <path id="Path_16361" data-name="Path 16361" d="M610.7,211.96a.945.945,0,0,1-.98-.978v-8.559a.956.956,0,0,1,.277-.708,1.059,1.059,0,0,1,1.412,0,.954.954,0,0,1,.271.708v8.559a.968.968,0,0,1-.271.7.938.938,0,0,1-.709.278Zm7.9,0a.945.945,0,0,1-.98-.978v-4.72a3.5,3.5,0,0,0-.4-1.787,2.523,2.523,0,0,0-1.088-1.026,3.548,3.548,0,0,0-1.569-.336,3.228,3.228,0,0,0-1.461.324,2.712,2.712,0,0,0-1.04.876,2.125,2.125,0,0,0-.385,1.26h-1.214a4.043,4.043,0,0,1,.589-2.159,4.213,4.213,0,0,1,1.6-1.505,4.689,4.689,0,0,1,2.29-.558,5.079,5.079,0,0,1,2.374.564,4.042,4.042,0,0,1,1.653,1.661,5.5,5.5,0,0,1,.607,2.687v4.72a.945.945,0,0,1-.98.978Z" transform="translate(-458.764 -195.856)" fill="#fff"/>
              <path id="Path_16362" data-name="Path 16362" d="M637.86,211.567a.883.883,0,0,1-.685.03,1.01,1.01,0,0,1-.511-.492l-4.406-8.349a.788.788,0,0,1-.048-.7.99.99,0,0,1,1.2-.522.909.909,0,0,1,.5.492l4.214,8.349a1.178,1.178,0,0,1,.144.7.612.612,0,0,1-.415.492Zm-2.272,5.026a1.2,1.2,0,0,1-.463-.114.809.809,0,0,1-.463-1.212l5.867-13.225a.838.838,0,0,1,1.214-.462.8.8,0,0,1,.481,1.212L636.339,216a.789.789,0,0,1-.752.594Z" transform="translate(-467.711 -195.907)" fill="#fff"/>
              <path id="Path_16363" data-name="Path 16363" d="M653.847,201.3a.946.946,0,0,1-.655-.228.746.746,0,0,1-.252-.576.778.778,0,0,1,.252-.612.918.918,0,0,1,.655-.228h4.442a.946.946,0,0,1,.655.228.794.794,0,0,1,.253.612.754.754,0,0,1-.253.576.918.918,0,0,1-.655.228Zm4.268,8.463a3.119,3.119,0,0,1-1.731-.492,3.423,3.423,0,0,1-1.214-1.331,4.035,4.035,0,0,1-.445-1.9v-9.15a.962.962,0,1,1,1.924,0v9.153a1.952,1.952,0,0,0,.421,1.284,1.28,1.28,0,0,0,1.04.516h.655a.767.767,0,0,1,.589.27.986.986,0,0,1,.24.69.867.867,0,0,1-.318.69,1.222,1.222,0,0,1-.818.27h-.349Z" transform="translate(-476.005 -193.687)" fill="#fff"/>
              <path id="Path_16364" data-name="Path 16364" d="M672.21,205.188a.945.945,0,0,1-.98-.978V195a.957.957,0,0,1,.276-.708,1.059,1.059,0,0,1,1.413,0,.953.953,0,0,1,.27.708v9.213a.967.967,0,0,1-.27.7.938.938,0,0,1-.709.275Zm0,3.839a.945.945,0,0,1-.98-.978V199.49a.957.957,0,0,1,.276-.708,1.059,1.059,0,0,1,1.413,0,.953.953,0,0,1,.27.708v8.559a.968.968,0,0,1-.27.7.938.938,0,0,1-.709.278Zm7.9,0a.945.945,0,0,1-.98-.978v-4.72a3.5,3.5,0,0,0-.4-1.787,2.521,2.521,0,0,0-1.088-1.026,3.549,3.549,0,0,0-1.569-.336,3.226,3.226,0,0,0-1.461.324,2.711,2.711,0,0,0-1.04.876,2.127,2.127,0,0,0-.385,1.26h-1.214a4.043,4.043,0,0,1,.589-2.159,4.217,4.217,0,0,1,1.6-1.505,4.69,4.69,0,0,1,2.29-.558,5.08,5.08,0,0,1,2.374.564,4.044,4.044,0,0,1,1.653,1.661,5.5,5.5,0,0,1,.607,2.687v4.72a.945.945,0,0,1-.98.978Z" transform="translate(-483.301 -192.922)" fill="#fff"/>
              <path id="Path_16365" data-name="Path 16365" d="M697.388,196.961a1.236,1.236,0,0,1-.9-.372,1.208,1.208,0,0,1-.373-.894,1.231,1.231,0,0,1,.373-.894,1.213,1.213,0,0,1,.9-.372,1.237,1.237,0,0,1,.9.372,1.2,1.2,0,0,1,.373.894,1.232,1.232,0,0,1-.373.894,1.2,1.2,0,0,1-.9.372Zm0,12.206a.945.945,0,0,1-.98-.978v-8.541a.935.935,0,0,1,.276-.708,1.059,1.059,0,0,1,1.413,0,.953.953,0,0,1,.27.708v8.541a.968.968,0,0,1-.27.7.939.939,0,0,1-.709.278Z" transform="translate(-493.23 -193.086)" fill="#fff"/>
              <path id="Path_16366" data-name="Path 16366" d="M710.12,211.96a.945.945,0,0,1-.98-.978v-8.559a.934.934,0,0,1,.277-.708,1.059,1.059,0,0,1,1.412,0,.953.953,0,0,1,.271.708v8.559a.967.967,0,0,1-.271.7.938.938,0,0,1-.709.278Zm7.9,0a.945.945,0,0,1-.98-.978v-4.72a3.5,3.5,0,0,0-.4-1.787,2.521,2.521,0,0,0-1.088-1.026,3.547,3.547,0,0,0-1.569-.336,3.226,3.226,0,0,0-1.461.324,2.712,2.712,0,0,0-1.04.876,2.125,2.125,0,0,0-.385,1.26h-1.214a4.043,4.043,0,0,1,.589-2.159,4.212,4.212,0,0,1,1.6-1.5,4.689,4.689,0,0,1,2.29-.558,5.08,5.08,0,0,1,2.374.564,4.081,4.081,0,0,1,1.653,1.661,5.5,5.5,0,0,1,.607,2.687v4.72a.972.972,0,0,1-.277.7.952.952,0,0,1-.7.277Z" transform="translate(-498.424 -195.856)" fill="#fff"/>
              <path id="Path_16367" data-name="Path 16367" d="M738.189,212.018a4.694,4.694,0,0,1-4.292-2.567,5.763,5.763,0,0,1-.637-2.753,5.507,5.507,0,0,1,.685-2.771,5,5,0,0,1,1.875-1.883,5.434,5.434,0,0,1,2.753-.684,5.343,5.343,0,0,1,2.729.684,4.957,4.957,0,0,1,1.875,1.883,5.491,5.491,0,0,1,.685,2.771h-1.136a6.185,6.185,0,0,1-.589,2.753,4.707,4.707,0,0,1-1.6,1.883A4.109,4.109,0,0,1,738.189,212.018Zm.349,4.282a6.147,6.147,0,0,1-2.561-.54,5.424,5.424,0,0,1-2.02-1.571.8.8,0,0,1-.181-.672.861.861,0,0,1,.373-.558.927.927,0,0,1,.721-.156.973.973,0,0,1,.607.384,3.615,3.615,0,0,0,1.31,1.02,4.265,4.265,0,0,0,1.791.366,3.4,3.4,0,0,0,1.7-.444,3.183,3.183,0,0,0,1.238-1.308,4.44,4.44,0,0,0,.463-2.111v-2.723l.637-1.691,1.25.4v4.145a5.625,5.625,0,0,1-.673,2.753,5.137,5.137,0,0,1-1.875,1.967,5.257,5.257,0,0,1-2.777.732Zm.036-6.01a3.374,3.374,0,0,0,1.767-.462,3.25,3.25,0,0,0,1.2-1.266,3.878,3.878,0,0,0,.433-1.859,3.945,3.945,0,0,0-.433-1.871,3.2,3.2,0,0,0-1.2-1.278,3.612,3.612,0,0,0-3.534,0,3.275,3.275,0,0,0-1.214,1.278,3.879,3.879,0,0,0-.445,1.871,3.8,3.8,0,0,0,.445,1.859,3.239,3.239,0,0,0,1.214,1.266,3.374,3.374,0,0,0,1.767.463Z" transform="translate(-508.046 -195.86)" fill="#fff"/>
              <path id="Path_16368" data-name="Path 16368" d="M757.484,197.816a1.169,1.169,0,0,1-.829-.336,1.084,1.084,0,0,1-.349-.816,2.653,2.653,0,0,1,.1-.756,6.055,6.055,0,0,0,.162-.7,2.539,2.539,0,0,0-.012-.876,5.778,5.778,0,0,0-.4-1.278.572.572,0,0,1,.012-.588.511.511,0,0,1,.469-.276.991.991,0,0,1,.673.414,5.106,5.106,0,0,1,.685,1.038,8.445,8.445,0,0,1,.529,1.278,3.914,3.914,0,0,1,.21,1.152,2.24,2.24,0,0,1-.325,1.248,1.038,1.038,0,0,1-.926.5Zm2.885,0a1.169,1.169,0,0,1-.83-.336,1.083,1.083,0,0,1-.349-.816,2.647,2.647,0,0,1,.1-.756,5.989,5.989,0,0,0,.162-.7,2.686,2.686,0,0,0-.012-.876,5.758,5.758,0,0,0-.4-1.278.572.572,0,0,1,.012-.588.511.511,0,0,1,.469-.276.991.991,0,0,1,.673.414,5.108,5.108,0,0,1,.685,1.038,8.4,8.4,0,0,1,.529,1.278,3.727,3.727,0,0,1,.21,1.152,2.238,2.238,0,0,1-.325,1.248,1.037,1.037,0,0,1-.926.5Z" transform="translate(-517.147 -192.19)" fill="#fff"/>
            </g>
          </g>
        </g>
      </g>
    </g>
    <g id="mainlogo" transform="translate(-11619.53 -7963.166)">
      <path id="Path_16369" data-name="Path 16369" d="M115.724,4.568l12.222,1.248a34.989,34.989,0,0,1,31.262,31.248l1.247,12.219a283.609,283.609,0,0,1,0,57.638l-1.247,12.216a34.993,34.993,0,0,1-31.262,31.25l-12.222,1.245a283.83,283.83,0,0,1-57.661,0L45.84,150.388a34.991,34.991,0,0,1-31.261-31.25l-1.248-12.216a283.76,283.76,0,0,1,0-57.638l1.248-12.219A34.988,34.988,0,0,1,45.84,5.816L58.062,4.568a283.833,283.833,0,0,1,57.662,0Z" transform="translate(-11.864 -3.1)" fill="#fff" fill-rule="evenodd" opacity="0"/>
      <g id="mainlogo-2" data-name="mainlogo" transform="translate(0.032)">
        <rect id="logoback" width="149.996" height="149.996" fill="none"/>
        <g id="logo">
          <rect id="back" width="149.996" height="149.996" fill="none"/>
          <path id="Path_16339" data-name="Path 16339" d="M7.974,254.37a7.973,7.973,0,0,1-6.218-12.96l14.172-17.654a7.976,7.976,0,1,1,12.447,9.976L14.2,251.385a7.963,7.963,0,0,1-6.228,2.985Z" transform="translate(18.245 -108.503)" fill="#00b1c9"/>
          <path id="Path_16340" data-name="Path 16340" d="M103.381,118.027a28.039,28.039,0,1,1,21.368-46.211,5.976,5.976,0,0,1-.459,8.237l-11.09,10.4a5.981,5.981,0,1,1-8.193-8.715l6.189-5.81a16.08,16.08,0,1,0,4.468,24.441A5.983,5.983,0,0,1,124.8,108.1a28.032,28.032,0,0,1-21.423,9.926Z" transform="translate(-19.515 -28.82)" fill="#fa6e53"/>
          <path id="Path_16341" data-name="Path 16341" d="M71.314,117.237A58.619,58.619,0,1,1,115.99,20.624a7.978,7.978,0,1,1-12.153,10.339,42.677,42.677,0,1,0,.075,55.215,7.975,7.975,0,1,1,12.179,10.3,58.6,58.6,0,0,1-44.782,20.748Z" transform="translate(11.903 2.261)" fill="#00b2ca"/>
        </g>
      </g>
    </g>
  </g>
</svg>
