<svg width="210" height="56" viewBox="0 0 210 56" fill="none" xmlns="http://www.w3.org/2000/svg">
<g id="eClassify">
<g id="textlogo">
<g id="eClassify_text">
<g id="final logo">
<g id="Text Logo">
<g id="eClassify_2">
<path id="Path 16342" d="M74.056 33.107C72.4242 33.1376 70.8113 32.7529 69.369 31.989C68.0356 31.2754 66.9252 30.2075 66.16 28.903C65.3706 27.5298 64.9696 25.9677 65 24.384C64.9705 22.7981 65.3493 21.2313 66.1 19.834C66.8079 18.5452 67.8582 17.4773 69.135 16.748C70.492 15.9859 72.0279 15.6 73.584 15.63C75.0769 15.5874 76.5517 15.9655 77.84 16.721C79.0162 17.4338 79.9601 18.4729 80.557 19.712C81.2043 21.0844 81.525 22.588 81.494 24.105C81.4991 24.2901 81.4649 24.4742 81.3937 24.6452C81.3225 24.8162 81.2159 24.9702 81.081 25.097C80.9408 25.2286 80.7759 25.3312 80.5958 25.3988C80.4158 25.4664 80.2242 25.4978 80.032 25.491H67.224V22.972H79.934L78.634 23.854C78.6301 22.8796 78.4134 21.9179 77.999 21.036C77.6201 20.2339 77.0261 19.5526 76.283 19.068C75.4737 18.5665 74.5346 18.3147 73.583 18.344C72.4965 18.312 71.4227 18.5846 70.483 19.131C69.6355 19.6444 68.9564 20.3941 68.529 21.288C68.0722 22.2566 67.844 23.3172 67.862 24.388C67.8428 25.4695 68.1172 26.536 68.656 27.474C69.181 28.372 69.9386 29.1117 70.849 29.615C71.8318 30.1525 72.938 30.4238 74.058 30.402C74.7463 30.3965 75.4287 30.2741 76.076 30.04C76.6703 29.8464 77.2325 29.5653 77.744 29.206C78.0428 28.9817 78.4036 28.8553 78.777 28.844C79.1302 28.828 79.4764 28.9463 79.746 29.175C79.9075 29.2997 80.0416 29.4563 80.14 29.635C80.2384 29.8138 80.299 30.0108 80.318 30.214C80.325 30.4067 80.2819 30.598 80.1929 30.7691C80.1038 30.9402 79.9719 31.0852 79.81 31.19C79.0014 31.8031 78.0931 32.272 77.125 32.576C76.1385 32.9184 75.1031 33.0991 74.059 33.111L74.056 33.107Z" fill="black"/>
<path id="Path 16343" d="M97.061 33.224C95.437 33.2377 93.827 32.9226 92.328 32.2975C90.8291 31.6725 89.4721 30.7504 88.339 29.587C87.2184 28.4302 86.3333 27.0665 85.733 25.572C85.0989 23.9907 84.7806 22.3006 84.796 20.597C84.7795 18.9085 85.0979 17.2336 85.733 15.669C86.336 14.1803 87.2209 12.8221 88.339 11.669C89.4486 10.5267 90.7707 9.61225 92.231 8.977C93.7551 8.31781 95.4005 7.98533 97.061 8.001C98.49 7.96973 99.9138 8.18279 101.271 8.63099C102.561 9.11739 103.76 9.82012 104.814 10.709C104.968 10.818 105.103 10.951 105.214 11.103C105.303 11.2259 105.368 11.3647 105.405 11.512C105.439 11.6723 105.455 11.836 105.453 12C105.458 12.1865 105.422 12.3719 105.347 12.5431C105.273 12.7144 105.163 12.8676 105.024 12.992C104.725 13.2687 104.336 13.4263 103.929 13.4349C103.522 13.4436 103.126 13.3027 102.816 13.039C102.089 12.4033 101.269 11.8829 100.385 11.496C99.3244 11.1007 98.1961 10.9189 97.065 10.961C95.8484 10.9539 94.6448 11.2119 93.538 11.717C92.444 12.2155 91.4568 12.9212 90.631 13.795C89.7895 14.6841 89.1262 15.7262 88.677 16.865C88.2065 18.0522 87.9688 19.3189 87.977 20.596C87.9688 21.8834 88.2063 23.1606 88.677 24.359C89.1262 25.4977 89.7895 26.5399 90.631 27.429C91.4534 28.3008 92.44 29.0015 93.534 29.491C95.6238 30.4074 97.9881 30.4752 100.127 29.68C101.118 29.2978 102.053 28.7842 102.907 28.153C103.227 27.8994 103.628 27.7707 104.035 27.791C104.391 27.816 104.726 27.9732 104.972 28.232C105.104 28.379 105.205 28.5506 105.271 28.737C105.336 28.9234 105.364 29.1208 105.353 29.318C105.353 29.5292 105.31 29.7381 105.226 29.932C105.136 30.1388 105.007 30.326 104.845 30.483C103.743 31.3626 102.503 32.0543 101.175 32.53C99.8532 32.9951 98.4612 33.2296 97.06 33.223L97.061 33.224Z" fill="black"/>
<path id="Path 16344" d="M114.321 33.22C113.436 33.2345 112.568 32.97 111.842 32.464C111.105 31.9403 110.524 31.2276 110.158 30.401C109.741 29.4543 109.537 28.4281 109.558 27.394V10.204C109.55 9.99456 109.586 9.78579 109.663 9.5907C109.739 9.3956 109.855 9.21836 110.003 9.07C110.316 8.78527 110.724 8.62748 111.147 8.62748C111.57 8.62748 111.978 8.78527 112.291 9.07C112.439 9.21836 112.555 9.3956 112.631 9.5907C112.708 9.78579 112.744 9.99456 112.736 10.204V27.397C112.708 28.0657 112.859 28.7298 113.175 29.32C113.277 29.5394 113.438 29.7262 113.64 29.8596C113.842 29.9931 114.077 30.068 114.319 30.076H115.113C115.307 30.0694 115.5 30.1054 115.679 30.1816C115.857 30.2578 116.017 30.3723 116.146 30.517C116.419 30.8302 116.562 31.2358 116.546 31.651C116.548 31.875 116.494 32.096 116.39 32.294C116.285 32.492 116.132 32.6608 115.946 32.785C115.488 33.0955 114.942 33.2501 114.389 33.226L114.321 33.22Z" fill="black"/>
<path id="Path 16345" d="M125.98 33.106C124.511 33.128 123.067 32.7293 121.817 31.957C120.59 31.1925 119.587 30.1172 118.909 28.84C118.185 27.4679 117.819 25.9352 117.845 24.384C117.821 22.8163 118.222 21.2715 119.005 19.913C119.759 18.6096 120.844 17.5287 122.151 16.78C123.515 16.0261 125.049 15.6307 126.608 15.6307C128.166 15.6307 129.7 16.0261 131.064 16.78C132.364 17.5324 133.443 18.6127 134.194 19.913C134.977 21.2715 135.378 22.8163 135.354 24.384H134.115C134.141 25.9352 133.775 27.4679 133.051 28.84C132.374 30.1171 131.371 31.1924 130.144 31.957C128.894 32.7295 127.449 33.1281 125.98 33.106ZM126.616 30.272C127.618 30.2908 128.606 30.0315 129.47 29.5229C130.333 29.0144 131.039 28.2764 131.509 27.391C132.004 26.467 132.256 25.4322 132.24 24.384C132.256 23.3256 132.004 22.2804 131.509 21.345C131.039 20.4596 130.333 19.7216 129.47 19.2131C128.606 18.7045 127.618 18.4452 126.616 18.464C125.604 18.4481 124.608 18.7151 123.74 19.235C122.886 19.7448 122.184 20.4732 121.706 21.345C121.198 22.2763 120.941 23.3234 120.959 24.384C120.941 25.4344 121.198 26.4712 121.706 27.391C122.184 28.2628 122.886 28.9912 123.74 29.501C124.609 30.0183 125.605 30.2851 126.616 30.272ZM133.734 33.012C133.52 33.0185 133.306 32.9813 133.107 32.9028C132.908 32.8242 132.726 32.7059 132.574 32.555C132.422 32.4054 132.303 32.2262 132.224 32.0285C132.145 31.8308 132.107 31.6189 132.113 31.406V26.588L132.713 23.25L135.35 24.384V31.406C135.356 31.6189 135.318 31.8308 135.239 32.0285C135.16 32.2262 135.041 32.4054 134.889 32.555C134.737 32.7052 134.557 32.8232 134.358 32.9018C134.16 32.9803 133.947 33.0178 133.734 33.012Z" fill="black"/>
<path id="Path 16346" d="M146.451 33.106C145.051 33.1197 143.658 32.8907 142.336 32.429C141.243 32.0773 140.24 31.4917 139.397 30.713C139.246 30.5655 139.131 30.385 139.062 30.1856C138.992 29.9862 138.97 29.7734 138.997 29.564C139.021 29.3547 139.089 29.1527 139.195 28.971C139.302 28.7893 139.446 28.6319 139.617 28.509C139.786 28.3561 139.985 28.2395 140.2 28.1664C140.416 28.0933 140.645 28.0652 140.872 28.084C141.281 28.1346 141.659 28.3301 141.936 28.635C142.43 29.123 143.02 29.5036 143.668 29.753C144.507 30.1084 145.41 30.2855 146.321 30.273C147.295 30.3308 148.267 30.1235 149.133 29.673C149.42 29.5252 149.663 29.3051 149.838 29.0344C150.013 28.7638 150.115 28.452 150.133 28.13C150.134 27.8025 150.052 27.4801 149.893 27.1936C149.734 26.9071 149.505 26.6659 149.227 26.493C148.18 25.8812 147.016 25.495 145.811 25.359C144.125 25.1319 142.524 24.4821 141.156 23.47C140.699 23.0967 140.332 22.6255 140.082 22.0914C139.832 21.5573 139.705 20.9738 139.71 20.384C139.676 19.4077 140.017 18.4554 140.663 17.723C141.332 16.9988 142.174 16.4573 143.111 16.15C144.112 15.8025 145.165 15.6267 146.225 15.63C147.496 15.6066 148.758 15.8312 149.943 16.291C150.941 16.6729 151.827 17.301 152.517 18.117C152.653 18.256 152.76 18.421 152.831 18.6023C152.902 18.7836 152.936 18.9774 152.93 19.172C152.917 19.3578 152.862 19.5382 152.768 19.6993C152.674 19.8603 152.545 19.9978 152.39 20.101C152.214 20.2168 152.016 20.296 151.809 20.3338C151.601 20.3716 151.389 20.3672 151.183 20.321C150.744 20.2503 150.336 20.0533 150.007 19.754C149.524 19.2783 148.936 18.9224 148.291 18.715C147.599 18.5155 146.882 18.4202 146.162 18.432C145.347 18.4077 144.538 18.5691 143.795 18.904C143.512 19.01 143.268 19.1991 143.095 19.4466C142.922 19.694 142.828 19.9881 142.826 20.29C142.821 20.6533 142.926 21.0097 143.126 21.313C143.436 21.6957 143.85 21.9802 144.318 22.132C145.164 22.4438 146.036 22.6807 146.924 22.84C148.229 23.0633 149.496 23.4672 150.689 24.04C151.488 24.4168 152.173 24.9981 152.675 25.725C153.084 26.3922 153.292 27.1628 153.275 27.945C153.286 28.875 153.014 29.7865 152.496 30.559C151.923 31.3806 151.13 32.0244 150.208 32.417C149.019 32.9121 147.738 33.147 146.451 33.106Z" fill="black"/>
<path id="Path 16347" d="M163.656 33.106C162.256 33.1197 160.863 32.8907 159.541 32.429C158.448 32.0773 157.445 31.4917 156.602 30.713C156.451 30.5655 156.336 30.3849 156.267 30.1856C156.197 29.9862 156.175 29.7734 156.202 29.564C156.226 29.3547 156.294 29.1527 156.401 28.971C156.507 28.7893 156.651 28.632 156.822 28.509C156.991 28.3561 157.19 28.2395 157.405 28.1664C157.621 28.0933 157.85 28.0652 158.077 28.084C158.486 28.1345 158.864 28.33 159.141 28.635C159.635 29.1229 160.225 29.5036 160.873 29.753C161.712 30.1084 162.615 30.2855 163.526 30.273C164.5 30.3308 165.472 30.1235 166.338 29.673C166.625 29.5252 166.868 29.3051 167.043 29.0344C167.219 28.7638 167.32 28.452 167.338 28.13C167.339 27.8025 167.257 27.4801 167.098 27.1936C166.939 26.9071 166.71 26.6659 166.432 26.493C165.385 25.8812 164.221 25.4949 163.016 25.359C161.33 25.132 159.729 24.4822 158.361 23.47C157.904 23.0967 157.537 22.6255 157.287 22.0914C157.037 21.5573 156.91 20.9738 156.915 20.384C156.881 19.4077 157.222 18.4554 157.868 17.723C158.536 16.9986 159.379 16.4568 160.315 16.149C161.316 15.8015 162.369 15.6257 163.429 15.629C164.7 15.6056 165.962 15.8301 167.147 16.29C168.145 16.6719 169.031 17.3001 169.721 18.116C169.857 18.255 169.964 18.42 170.035 18.6013C170.106 18.7826 170.14 18.9764 170.134 19.171C170.121 19.3568 170.066 19.5373 169.972 19.6983C169.878 19.8594 169.749 19.9968 169.594 20.1C169.418 20.2158 169.22 20.295 169.013 20.3328C168.805 20.3706 168.593 20.3662 168.387 20.32C167.948 20.2493 167.54 20.0523 167.211 19.753C166.728 19.2773 166.14 18.9215 165.495 18.714C164.803 18.5146 164.086 18.4192 163.366 18.431C162.551 18.4067 161.742 18.5681 160.999 18.903C160.716 19.0089 160.472 19.1981 160.299 19.4456C160.126 19.693 160.032 19.9871 160.03 20.289C160.025 20.6523 160.13 21.0087 160.33 21.312C160.64 21.6947 161.054 21.9792 161.522 22.131C162.368 22.4428 163.24 22.6797 164.128 22.839C165.433 23.0623 166.7 23.4662 167.893 24.039C168.692 24.4158 169.377 24.9971 169.879 25.724C170.288 26.3912 170.496 27.1618 170.479 27.944C170.49 28.8739 170.219 29.7853 169.701 30.558C169.128 31.3796 168.335 32.0235 167.413 32.416C166.222 32.9136 164.938 33.15 163.648 33.109L163.656 33.106Z" fill="black"/>
<path id="Path 16348" d="M176.498 13.197C176.223 13.2003 175.95 13.1475 175.696 13.0419C175.442 12.9364 175.213 12.7802 175.021 12.583C174.825 12.3928 174.669 12.1653 174.563 11.9138C174.456 11.6623 174.402 11.392 174.402 11.119C174.402 10.8459 174.456 10.5757 174.563 10.3242C174.669 10.0727 174.825 9.84516 175.021 9.655C175.215 9.46031 175.445 9.30582 175.698 9.2004C175.952 9.09498 176.224 9.04071 176.498 9.04071C176.773 9.04071 177.045 9.09498 177.299 9.2004C177.552 9.30582 177.782 9.46031 177.976 9.655C178.172 9.84516 178.328 10.0727 178.434 10.3242C178.541 10.5757 178.595 10.8459 178.595 11.119C178.595 11.392 178.541 11.6623 178.434 11.9138C178.328 12.1653 178.172 12.3928 177.976 12.583C177.784 12.7803 177.554 12.9366 177.3 13.0421C177.046 13.1477 176.773 13.2004 176.498 13.197ZM176.498 33.224C176.284 33.2305 176.07 33.1933 175.871 33.1148C175.672 33.0362 175.49 32.9179 175.338 32.767C175.186 32.6174 175.067 32.4381 174.988 32.2405C174.909 32.0428 174.871 31.8309 174.877 31.618V17.605C174.868 17.3893 174.904 17.1742 174.984 16.9735C175.063 16.7728 175.184 16.591 175.338 16.44C175.493 16.2934 175.675 16.179 175.874 16.1033C176.073 16.0276 176.285 15.9922 176.498 15.999C176.713 15.9911 176.928 16.0261 177.13 16.1018C177.332 16.1775 177.517 16.2924 177.674 16.44C177.824 16.5934 177.941 16.7759 178.017 16.9763C178.094 17.1767 178.128 17.3907 178.119 17.605V31.617C178.128 31.8316 178.092 32.0456 178.013 32.2455C177.935 32.4454 177.816 32.6267 177.663 32.7778C177.51 32.929 177.328 33.0466 177.127 33.1233C176.927 33.1999 176.712 33.2349 176.498 33.224Z" fill="black"/>
<path id="Path 16349" d="M183.017 19.336C182.622 19.3536 182.235 19.2182 181.937 18.958C181.804 18.8399 181.698 18.6942 181.626 18.531C181.555 18.3678 181.52 18.1911 181.524 18.013C181.516 17.8251 181.549 17.6377 181.62 17.4637C181.691 17.2896 181.799 17.1331 181.937 17.005C182.235 16.7448 182.622 16.6094 183.017 16.627H190.866C191.261 16.6095 191.648 16.7449 191.946 17.005C192.084 17.1331 192.192 17.2896 192.263 17.4637C192.335 17.6377 192.367 17.8251 192.359 18.013C192.363 18.1911 192.328 18.3678 192.257 18.531C192.185 18.6942 192.079 18.8399 191.946 18.958C191.648 19.2182 191.261 19.3536 190.866 19.336H183.017ZM185.941 33.22C185.537 33.2195 185.15 33.0612 184.861 32.779C184.702 32.6305 184.578 32.4495 184.496 32.2485C184.413 32.0475 184.375 31.8311 184.384 31.614V16.093C184.35 14.7257 184.662 13.3719 185.29 12.157C185.869 11.0687 186.745 10.1671 187.816 9.557C188.961 8.92118 190.255 8.60061 191.565 8.628C191.989 8.6129 192.404 8.75902 192.725 9.037C192.874 9.16531 192.992 9.32506 193.072 9.50472C193.152 9.68439 193.191 9.8795 193.186 10.076C193.19 10.27 193.15 10.4624 193.07 10.6393C192.991 10.8162 192.873 10.9732 192.725 11.099C192.408 11.3861 191.992 11.5385 191.565 11.524C190.841 11.5085 190.126 11.6936 189.5 12.059C188.91 12.413 188.431 12.9259 188.118 13.539C187.775 14.2333 187.606 15.0007 187.625 15.775V31.62C187.635 31.8343 187.6 32.0483 187.523 32.2487C187.447 32.4491 187.33 32.6316 187.18 32.785C187.013 32.9368 186.817 33.0535 186.605 33.1282C186.392 33.203 186.166 33.2342 185.941 33.22Z" fill="black"/>
<path id="Path 16350" d="M202.592 31.755C202.416 31.8373 202.226 31.8838 202.033 31.8919C201.839 31.8999 201.646 31.8694 201.464 31.802C201.095 31.6474 200.795 31.3628 200.622 31.002L193.346 17.302C193.243 17.1302 193.183 16.9366 193.169 16.737C193.155 16.5373 193.189 16.3372 193.267 16.153C193.378 15.8737 193.57 15.6336 193.817 15.4628C194.064 15.292 194.357 15.1982 194.657 15.1932C194.958 15.1881 195.253 15.2721 195.506 15.4345C195.759 15.597 195.958 15.8306 196.079 16.106L203.038 29.806C203.239 30.1532 203.323 30.5563 203.276 30.955C203.247 31.1384 203.167 31.3101 203.047 31.4513C202.926 31.5924 202.769 31.6975 202.592 31.755ZM198.843 40.005C198.579 39.9927 198.319 39.9285 198.08 39.816C197.88 39.762 197.696 39.6616 197.542 39.5229C197.388 39.3842 197.269 39.2112 197.195 39.0178C197.12 38.8245 197.093 38.6163 197.114 38.4102C197.135 38.2042 197.205 38.0061 197.317 37.832L207.009 16.132C207.074 15.9383 207.182 15.7615 207.324 15.6143C207.466 15.4672 207.639 15.3533 207.83 15.281C208.022 15.2087 208.226 15.1798 208.43 15.1962C208.634 15.2126 208.832 15.274 209.009 15.376C209.213 15.4248 209.401 15.5217 209.56 15.6585C209.718 15.7954 209.841 15.9683 209.919 16.1626C209.997 16.3569 210.027 16.5671 210.007 16.7754C209.987 16.9838 209.917 17.1842 209.803 17.36L200.079 39.029C200.008 39.3047 199.849 39.5495 199.625 39.7258C199.402 39.9021 199.128 40.0002 198.843 40.005Z" fill="black"/>
</g>
<g id="Tagline">
<path id="Path 16351" d="M83.92 41.001C83.9637 40.9999 84.0069 41.0105 84.0451 41.0318C84.0832 41.0531 84.115 41.0842 84.137 41.122C84.1606 41.1605 84.1736 41.2047 84.1744 41.2498C84.1753 41.295 84.1641 41.3396 84.142 41.379C84.0555 41.5562 83.9932 41.7442 83.957 41.938C83.9343 42.0645 83.9326 42.1939 83.952 42.321C83.971 42.429 83.997 42.528 84.024 42.628C84.054 42.7357 84.0681 42.8472 84.066 42.959C84.0672 43.026 84.054 43.0925 84.0275 43.1541C84.0009 43.2157 83.9616 43.2708 83.912 43.316C83.864 43.3635 83.807 43.401 83.7443 43.4263C83.6816 43.4515 83.6146 43.464 83.547 43.463C83.4659 43.4653 83.3856 43.4464 83.3141 43.4082C83.2425 43.37 83.1822 43.3137 83.139 43.245C83.0386 43.0811 82.9888 42.8911 82.996 42.699C83.0015 42.5286 83.0329 42.36 83.089 42.199C83.1521 42.0069 83.23 41.82 83.322 41.64C83.4022 41.4764 83.503 41.3239 83.622 41.186C83.656 41.136 83.7001 41.0938 83.7514 41.0619C83.8027 41.03 83.8602 41.0093 83.92 41.001ZM85.225 41.001C85.2687 40.9999 85.3119 41.0105 85.3501 41.0318C85.3882 41.0531 85.42 41.0842 85.442 41.122C85.4655 41.1606 85.4784 41.2047 85.4793 41.2498C85.4802 41.295 85.469 41.3396 85.447 41.379C85.3605 41.5562 85.2983 41.7442 85.262 41.938C85.2394 42.0645 85.2377 42.1939 85.257 42.321C85.278 42.429 85.302 42.528 85.329 42.628C85.359 42.7357 85.3731 42.8472 85.371 42.959C85.3722 43.026 85.359 43.0925 85.3325 43.1541C85.3059 43.2157 85.2666 43.2708 85.217 43.316C85.1688 43.3633 85.1118 43.4007 85.0492 43.4259C84.9865 43.4511 84.9195 43.4637 84.852 43.463C84.7709 43.4652 84.6907 43.4463 84.6191 43.4081C84.5476 43.3698 84.4872 43.3136 84.444 43.245C84.3435 43.0811 84.2938 42.8911 84.301 42.699C84.3066 42.5286 84.3379 42.36 84.394 42.199C84.4582 42.0073 84.5361 41.8205 84.627 41.64C84.7071 41.4764 84.808 41.3239 84.927 41.186C84.9618 41.1357 85.0067 41.0932 85.0589 41.0614C85.1111 41.0295 85.1694 41.0089 85.23 41.001H85.225Z" fill="black"/>
<path id="Path 16352" d="M88.111 48.039C88.0531 48.0403 87.9957 48.0299 87.942 48.0082C87.8884 47.9865 87.8397 47.9541 87.799 47.913C87.7576 47.8729 87.7249 47.8246 87.7031 47.7713C87.6812 47.7179 87.6706 47.6606 87.672 47.603V41.919C87.6699 41.8605 87.6801 41.8023 87.702 41.748C87.7238 41.6937 87.7569 41.6446 87.799 41.604C87.8405 41.564 87.8895 41.5326 87.9433 41.5119C87.997 41.4911 88.0544 41.4813 88.112 41.483H90.141C90.491 41.4752 90.8378 41.5516 91.152 41.706C91.4324 41.8456 91.6695 42.0589 91.838 42.323C92.007 42.5953 92.0934 42.9106 92.087 43.231C92.0907 43.496 92.012 43.7556 91.862 43.974C91.7064 44.1993 91.4948 44.3803 91.248 44.499C91.5978 44.5727 91.9139 44.7589 92.148 45.029C92.3834 45.3207 92.504 45.6885 92.487 46.063C92.4956 46.4199 92.402 46.7718 92.2172 47.0773C92.0324 47.3828 91.7641 47.629 91.444 47.787C91.0944 47.9629 90.7073 48.0511 90.316 48.044H88.116L88.111 48.039ZM88.551 44.176H90.134C90.417 44.1881 90.6958 44.105 90.926 43.94C91.0316 43.8549 91.1149 43.7455 91.1689 43.6212C91.2229 43.4968 91.2459 43.3612 91.236 43.226C91.2463 43.0916 91.2235 42.9567 91.1694 42.8333C91.1153 42.7098 91.0317 42.6015 90.926 42.518C90.6946 42.356 90.4162 42.2748 90.134 42.287H88.551V44.176ZM88.551 47.233H90.315C90.5506 47.2377 90.7845 47.192 91.001 47.099C91.1914 47.0159 91.3534 46.8789 91.467 46.705C91.5859 46.5111 91.6447 46.2863 91.636 46.059C91.646 45.846 91.5867 45.6355 91.467 45.459C91.3489 45.298 91.1872 45.1741 91.001 45.102C90.7824 45.0174 90.5494 44.9763 90.315 44.981H88.551V47.232V47.233Z" fill="black"/>
<path id="Path 16353" d="M96.51 48.053C96.1461 48.0595 95.7865 47.9746 95.464 47.806C95.1555 47.6401 94.9023 47.3873 94.736 47.079C94.548 46.7162 94.4561 46.3114 94.469 45.903V43.838C94.4671 43.7812 94.477 43.7246 94.498 43.6718C94.519 43.6189 94.5506 43.571 94.591 43.531C94.6317 43.4908 94.6802 43.4594 94.7335 43.4386C94.7868 43.4178 94.8438 43.408 94.901 43.41C94.9581 43.4087 95.0149 43.4187 95.0681 43.4395C95.1213 43.4602 95.1699 43.4913 95.211 43.531C95.2514 43.571 95.283 43.6189 95.304 43.6718C95.325 43.7246 95.3349 43.7812 95.333 43.838V45.903C95.322 46.1731 95.3831 46.4413 95.51 46.68C95.6208 46.8768 95.7889 47.0352 95.992 47.134C96.2067 47.234 96.4412 47.2843 96.678 47.281C96.9026 47.2862 97.1251 47.2375 97.327 47.139C97.5085 47.0512 97.6645 46.9183 97.78 46.753C97.8913 46.5928 97.9503 46.4021 97.949 46.207H98.484C98.4877 46.5383 98.3976 46.8638 98.224 47.146C98.0533 47.4252 97.8118 47.6543 97.524 47.81C97.2129 47.9761 96.8646 48.0601 96.512 48.054L96.51 48.053ZM98.382 48.011C98.3248 48.013 98.2679 48.0032 98.2146 47.9824C98.1613 47.9616 98.1127 47.9302 98.072 47.89C98.0316 47.85 97.9999 47.802 97.979 47.7492C97.958 47.6964 97.9481 47.6398 97.95 47.583V43.838C97.9473 43.7806 97.9568 43.7234 97.9778 43.67C97.9989 43.6165 98.031 43.5681 98.072 43.528C98.1578 43.452 98.2684 43.41 98.383 43.41C98.4976 43.41 98.6082 43.452 98.694 43.528C98.7341 43.5687 98.7653 43.6173 98.7858 43.6706C98.8063 43.7239 98.8155 43.7809 98.813 43.838V47.583C98.8148 47.6395 98.8051 47.6958 98.7847 47.7486C98.7642 47.8013 98.7334 47.8494 98.694 47.89C98.6533 47.9307 98.6044 47.9625 98.5507 47.9833C98.497 48.0042 98.4396 48.0136 98.382 48.011Z" fill="black"/>
<path id="Path 16354" d="M103.015 47.802C102.968 47.8238 102.918 47.8361 102.866 47.8384C102.815 47.8406 102.763 47.8326 102.715 47.815C102.616 47.7729 102.537 47.6965 102.49 47.6L100.549 43.947C100.522 43.901 100.506 43.8493 100.502 43.796C100.498 43.7427 100.507 43.6893 100.528 43.64C100.555 43.5632 100.605 43.4967 100.671 43.4491C100.738 43.4016 100.817 43.3753 100.898 43.3739C100.979 43.3725 101.059 43.396 101.127 43.4412C101.195 43.4864 101.247 43.5512 101.277 43.627L103.133 47.28C103.186 47.3731 103.208 47.4805 103.197 47.587C103.19 47.6363 103.168 47.6826 103.136 47.7205C103.104 47.7585 103.061 47.7867 103.014 47.802H103.015ZM102.015 50.002C101.946 49.9985 101.878 49.9815 101.815 49.952C101.762 49.937 101.713 49.9098 101.673 49.8726C101.632 49.8353 101.601 49.789 101.581 49.7375C101.562 49.6859 101.555 49.6305 101.561 49.5757C101.566 49.5209 101.585 49.4683 101.615 49.422L104.199 43.636C104.217 43.5844 104.246 43.5373 104.284 43.4982C104.322 43.4591 104.368 43.4289 104.419 43.4098C104.47 43.3907 104.525 43.3831 104.58 43.3876C104.634 43.3922 104.687 43.4087 104.734 43.436C104.788 43.4491 104.839 43.475 104.881 43.5116C104.923 43.5482 104.956 43.5944 104.977 43.6462C104.998 43.6981 105.006 43.7542 105 43.8099C104.995 43.8655 104.976 43.919 104.946 43.966L102.354 49.744C102.334 49.8185 102.29 49.8843 102.228 49.9308C102.167 49.9774 102.091 50.0021 102.014 50.001L102.015 50.002Z" fill="black"/>
<path id="Path 16355" d="M111.423 48.154C111.099 48.1597 110.777 48.0913 110.483 47.954C110.223 47.8316 110.004 47.6364 109.853 47.392C109.697 47.1271 109.619 46.8234 109.628 46.516C109.628 46.1356 109.766 45.7681 110.017 45.482C110.326 45.1272 110.67 44.8037 111.042 44.516L111.742 43.962C111.977 43.7983 112.173 43.5862 112.319 43.34C112.402 43.1668 112.448 42.9781 112.454 42.786C112.457 42.58 112.379 42.3811 112.237 42.232C112.156 42.1503 112.059 42.087 111.952 42.0463C111.844 42.0056 111.73 41.9884 111.615 41.996C111.394 41.9864 111.178 42.0648 111.015 42.214C110.943 42.2786 110.886 42.3576 110.847 42.4458C110.807 42.534 110.787 42.6295 110.787 42.726C110.788 42.8744 110.822 43.0206 110.887 43.154C110.968 43.3138 111.075 43.4586 111.205 43.582L115.06 47.395C115.136 47.461 115.19 47.5491 115.214 47.647C115.216 47.6955 115.206 47.7438 115.186 47.7877C115.165 47.8316 115.134 47.8698 115.095 47.899C115.063 47.9407 115.022 47.9745 114.975 47.9977C114.928 48.0209 114.876 48.033 114.823 48.033C114.771 48.033 114.719 48.0209 114.672 47.9977C114.625 47.9745 114.584 47.9407 114.552 47.899L110.652 44.044C110.471 43.8649 110.322 43.6562 110.212 43.427C110.111 43.2129 110.058 42.9789 110.058 42.742C110.054 42.4855 110.123 42.2333 110.258 42.015C110.395 41.7982 110.588 41.6224 110.817 41.506C111.067 41.3831 111.343 41.32 111.622 41.3217C111.901 41.3234 112.175 41.39 112.424 41.516C112.653 41.6403 112.845 41.8232 112.98 42.046C113.116 42.2745 113.185 42.5363 113.18 42.802C113.184 43.0077 113.145 43.212 113.066 43.402C112.98 43.596 112.861 43.7736 112.714 43.927C112.521 44.1282 112.314 44.3151 112.094 44.486L111.424 45.016C111.241 45.1578 111.069 45.3122 110.908 45.478C110.766 45.6216 110.645 45.7841 110.548 45.961C110.461 46.1224 110.416 46.3028 110.416 46.486C110.406 46.6159 110.424 46.7464 110.47 46.8686C110.515 46.9908 110.586 47.1018 110.678 47.194C110.884 47.3644 111.147 47.4498 111.414 47.433C111.725 47.4408 112.031 47.3607 112.298 47.202C112.58 47.0236 112.838 46.8103 113.066 46.567L114.303 45.273C114.367 45.1983 114.449 45.1406 114.541 45.105C114.586 45.0972 114.633 45.1016 114.676 45.1178C114.72 45.134 114.758 45.1613 114.787 45.197C114.827 45.2287 114.859 45.2681 114.883 45.3128C114.907 45.3574 114.922 45.4065 114.927 45.457C114.923 45.5619 114.88 45.6614 114.805 45.735L113.568 47.029C113.291 47.3461 112.968 47.6195 112.609 47.84C112.248 48.0545 111.835 48.1636 111.415 48.155L111.423 48.154Z" fill="black"/>
<path id="Path 16356" d="M122.597 48.123C122.246 48.1253 121.896 48.0685 121.564 47.955C121.252 47.8524 120.963 47.6931 120.709 47.485C120.477 47.2981 120.293 47.058 120.174 46.785C120.146 46.7347 120.132 46.6779 120.133 46.6203C120.134 46.5628 120.15 46.5065 120.179 46.457C120.244 46.3638 120.341 46.2975 120.451 46.2704C120.562 46.2434 120.678 46.2574 120.779 46.31C120.878 46.3633 120.957 46.4472 121.004 46.549C121.084 46.7015 121.199 46.8336 121.338 46.935C121.509 47.0603 121.7 47.1569 121.902 47.221C122.126 47.2949 122.36 47.3321 122.596 47.331C122.851 47.3336 123.105 47.2909 123.345 47.205C123.558 47.1313 123.749 47.0059 123.901 46.84C124.043 46.6759 124.119 46.4643 124.113 46.247C124.112 46.0967 124.08 45.9481 124.02 45.8105C123.959 45.6729 123.871 45.5492 123.761 45.447C123.436 45.1746 123.028 45.0209 122.604 45.011C122.003 44.9814 121.426 44.767 120.952 44.397C120.762 44.2455 120.609 44.0526 120.505 43.833C120.401 43.6134 120.349 43.3729 120.352 43.13C120.342 42.7898 120.453 42.4571 120.665 42.191C120.891 41.9213 121.186 41.7181 121.518 41.603C121.903 41.4647 122.309 41.397 122.718 41.403C123.024 41.3974 123.329 41.4454 123.618 41.545C123.865 41.6334 124.092 41.767 124.29 41.939C124.486 42.1129 124.654 42.3151 124.79 42.539C124.864 42.6397 124.899 42.7635 124.89 42.888C124.884 42.9405 124.866 42.991 124.838 43.0355C124.809 43.0801 124.771 43.1175 124.726 43.145C124.675 43.1778 124.617 43.1986 124.557 43.2059C124.497 43.2132 124.436 43.2067 124.379 43.187C124.261 43.1522 124.161 43.0744 124.098 42.969C124.013 42.8133 123.901 42.6738 123.767 42.557C123.631 42.4419 123.476 42.3522 123.309 42.292C123.11 42.2219 122.9 42.188 122.689 42.192C122.324 42.1742 121.962 42.254 121.638 42.423C121.504 42.4922 121.394 42.5982 121.318 42.7285C121.243 42.8587 121.207 43.0078 121.214 43.158C121.215 43.3278 121.26 43.4943 121.346 43.641C121.462 43.8201 121.631 43.9595 121.828 44.041C122.15 44.1754 122.492 44.2551 122.84 44.277C123.416 44.3062 123.967 44.5197 124.413 44.886C124.599 45.0541 124.746 45.2611 124.844 45.4923C124.941 45.7235 124.987 45.9733 124.977 46.224C124.984 46.514 124.915 46.8008 124.777 47.056C124.645 47.2912 124.462 47.4939 124.242 47.649C124.011 47.8127 123.753 47.9336 123.479 48.006C123.191 48.085 122.894 48.1247 122.595 48.124L122.597 48.123Z" fill="black"/>
<path id="Path 16357" d="M129.284 48.043C128.849 48.0508 128.418 47.9476 128.034 47.743C127.678 47.5527 127.382 47.2675 127.179 46.919C126.969 46.5545 126.862 46.1397 126.869 45.719C126.861 45.2968 126.961 44.8796 127.16 44.507C127.349 44.1631 127.629 43.8779 127.97 43.683C128.331 43.4787 128.741 43.3751 129.156 43.383C129.554 43.3717 129.948 43.4718 130.292 43.672C130.605 43.8635 130.857 44.1412 131.017 44.472C131.189 44.8375 131.274 45.238 131.266 45.642C131.267 45.6915 131.258 45.7408 131.239 45.7864C131.22 45.8321 131.191 45.8732 131.155 45.907C131.117 45.9414 131.073 45.9679 131.025 45.9851C130.976 46.0022 130.925 46.0097 130.874 46.007H127.458V45.335H130.847L130.5 45.571C130.5 45.3116 130.442 45.0554 130.331 44.821C130.228 44.598 130.061 44.4106 129.851 44.2826C129.641 44.1547 129.398 44.0918 129.153 44.102C128.864 44.0938 128.577 44.1665 128.327 44.312C128.101 44.4488 127.919 44.6486 127.805 44.887C127.683 45.1454 127.623 45.4284 127.628 45.714C127.624 46.0027 127.697 46.2872 127.84 46.538C127.98 46.7778 128.182 46.9754 128.425 47.11C128.687 47.2539 128.982 47.3263 129.28 47.32C129.464 47.3181 129.646 47.2842 129.818 47.22C129.976 47.1673 130.126 47.0922 130.263 46.997C130.342 46.9366 130.438 46.9017 130.538 46.897C130.633 46.8928 130.725 46.9246 130.797 46.986C130.84 47.0197 130.876 47.0617 130.902 47.1094C130.929 47.1572 130.945 47.2097 130.951 47.264C130.953 47.3153 130.941 47.3661 130.917 47.4116C130.894 47.4571 130.859 47.4958 130.816 47.524C130.601 47.6876 130.359 47.8128 130.101 47.894C129.838 47.9847 129.562 48.0327 129.283 48.036L129.284 48.043Z" fill="black"/>
<path id="Path 16358" d="M134.333 48.039C134.097 48.0429 133.865 47.973 133.671 47.839C133.474 47.6994 133.318 47.509 133.221 47.288C133.109 47.0365 133.053 46.7633 133.059 46.488V41.899C133.057 41.8435 133.067 41.7882 133.087 41.7366C133.108 41.685 133.139 41.6382 133.178 41.599C133.261 41.5231 133.37 41.481 133.482 41.481C133.595 41.481 133.704 41.5231 133.787 41.599C133.826 41.6382 133.857 41.685 133.878 41.7366C133.898 41.7882 133.908 41.8435 133.906 41.899V46.483C133.899 46.6613 133.94 46.8382 134.025 46.995C134.052 47.0524 134.094 47.1014 134.147 47.1366C134.2 47.1718 134.262 47.192 134.325 47.195H134.537C134.589 47.1933 134.64 47.2029 134.688 47.2233C134.735 47.2437 134.778 47.2743 134.812 47.313C134.884 47.3958 134.922 47.5031 134.918 47.613C134.918 47.6726 134.904 47.7312 134.875 47.7836C134.847 47.8361 134.806 47.8805 134.756 47.913C134.634 47.996 134.488 48.0374 134.34 48.031H134.324L134.333 48.039Z" fill="black"/>
<path id="Path 16359" d="M137.732 48.039C137.496 48.0429 137.264 47.973 137.07 47.839C136.873 47.6994 136.717 47.509 136.62 47.288C136.508 47.0364 136.453 46.7633 136.459 46.488V41.899C136.457 41.8435 136.467 41.7883 136.487 41.7367C136.508 41.6851 136.539 41.6382 136.578 41.599C136.661 41.5231 136.77 41.481 136.883 41.481C136.995 41.481 137.104 41.5231 137.187 41.599C137.226 41.6382 137.257 41.685 137.278 41.7366C137.298 41.7882 137.308 41.8435 137.306 41.899V46.483C137.299 46.6613 137.34 46.8382 137.425 46.995C137.452 47.0524 137.494 47.1014 137.547 47.1366C137.6 47.1718 137.662 47.192 137.725 47.195H137.937C137.989 47.1933 138.04 47.203 138.088 47.2234C138.135 47.2438 138.178 47.2744 138.212 47.313C138.284 47.3958 138.322 47.5031 138.318 47.613C138.318 47.6725 138.304 47.7311 138.276 47.7835C138.248 47.8359 138.207 47.8804 138.157 47.913C138.035 47.996 137.889 48.0373 137.741 48.031H137.725L137.732 48.039Z" fill="black"/>
<path id="Path 16360" d="M143.194 48.039C143.121 48.0414 143.048 48.0241 142.984 47.9889C142.92 47.9537 142.866 47.902 142.829 47.839C142.788 47.7761 142.764 47.7035 142.759 47.6284C142.755 47.5534 142.77 47.4784 142.803 47.411L145.183 41.777C145.212 41.6899 145.268 41.6143 145.342 41.5614C145.417 41.5084 145.507 41.481 145.599 41.483C145.691 41.4781 145.783 41.5044 145.858 41.5578C145.934 41.6111 145.989 41.6883 146.015 41.777L148.403 47.429C148.434 47.4966 148.448 47.5709 148.443 47.6452C148.438 47.7195 148.414 47.7913 148.374 47.854C148.335 47.9154 148.28 47.9652 148.216 47.9985C148.151 48.0317 148.079 48.0471 148.006 48.043C147.921 48.0426 147.837 48.018 147.765 47.972C147.689 47.9261 147.631 47.8555 147.601 47.772L145.501 42.6H145.739L143.605 47.772C143.569 47.8556 143.508 47.9257 143.43 47.972C143.36 48.0152 143.279 48.0386 143.197 48.04L143.194 48.039ZM143.644 46.596L143.983 45.874H147.303L147.642 46.596H143.644Z" fill="black"/>
<path id="Path 16361" d="M150.629 48.019C150.572 48.021 150.515 48.0112 150.462 47.9904C150.408 47.9696 150.36 47.9382 150.319 47.898C150.279 47.858 150.247 47.81 150.226 47.7572C150.205 47.7044 150.195 47.6478 150.197 47.591V43.847C150.195 43.7897 150.205 43.7326 150.226 43.6793C150.247 43.6259 150.278 43.5775 150.319 43.537C150.405 43.461 150.515 43.4191 150.63 43.4191C150.745 43.4191 150.855 43.461 150.941 43.537C150.981 43.5777 151.012 43.6263 151.033 43.6796C151.053 43.7329 151.063 43.7899 151.06 43.847V47.592C151.062 47.6485 151.052 47.7048 151.032 47.7576C151.011 47.8103 150.98 47.8584 150.941 47.899C150.9 47.9395 150.851 47.9711 150.798 47.9918C150.744 48.0125 150.686 48.0217 150.629 48.019ZM154.111 48.019C154.054 48.021 153.997 48.0112 153.944 47.9904C153.89 47.9696 153.842 47.9382 153.801 47.898C153.761 47.858 153.729 47.81 153.708 47.7572C153.687 47.7044 153.677 47.6478 153.679 47.591V45.527C153.691 45.2552 153.63 44.9852 153.502 44.745C153.391 44.5504 153.224 44.3938 153.023 44.296C152.807 44.1952 152.571 44.1449 152.332 44.149C152.109 44.1455 151.889 44.1942 151.688 44.291C151.505 44.3778 151.348 44.5096 151.23 44.674C151.116 44.835 151.057 45.028 151.061 45.225H150.526C150.521 44.8917 150.612 44.564 150.786 44.28C150.959 44.0016 151.203 43.7741 151.493 43.621C151.803 43.4556 152.15 43.3716 152.502 43.377C152.866 43.3736 153.224 43.4584 153.548 43.624C153.857 43.7891 154.111 44.0421 154.276 44.351C154.464 44.7137 154.557 45.1185 154.544 45.527V47.592C154.546 47.6488 154.536 47.7054 154.515 47.7582C154.494 47.8111 154.462 47.859 154.422 47.899C154.381 47.9391 154.332 47.9705 154.279 47.9911C154.225 48.0117 154.168 48.0212 154.111 48.019Z" fill="black"/>
<path id="Path 16362" d="M158.67 47.802C158.623 47.8238 158.573 47.8361 158.521 47.8384C158.47 47.8406 158.418 47.8326 158.37 47.815C158.272 47.7728 158.192 47.6965 158.145 47.6L156.204 43.947C156.177 43.901 156.161 43.8493 156.157 43.796C156.153 43.7427 156.162 43.6893 156.183 43.64C156.204 43.5907 156.235 43.5462 156.273 43.5093C156.312 43.4723 156.358 43.4436 156.408 43.425C156.455 43.4021 156.507 43.3891 156.559 43.3868C156.612 43.3845 156.664 43.393 156.713 43.4117C156.762 43.4305 156.807 43.4591 156.845 43.4957C156.882 43.5324 156.912 43.5764 156.932 43.625L158.788 47.278C158.841 47.3711 158.863 47.4785 158.852 47.585C158.845 47.6343 158.823 47.6806 158.791 47.7185C158.759 47.7565 158.717 47.7847 158.669 47.8L158.67 47.802ZM157.67 50.002C157.601 49.9985 157.533 49.9815 157.47 49.952C157.417 49.9369 157.368 49.9095 157.328 49.8723C157.287 49.835 157.256 49.7887 157.237 49.7372C157.217 49.6858 157.21 49.6304 157.216 49.5757C157.222 49.5209 157.24 49.4683 157.27 49.422L159.854 43.636C159.872 43.5844 159.901 43.5373 159.939 43.4982C159.977 43.4591 160.023 43.4289 160.074 43.4098C160.125 43.3907 160.18 43.3831 160.235 43.3876C160.289 43.3922 160.342 43.4087 160.389 43.436C160.443 43.4491 160.494 43.475 160.536 43.5116C160.578 43.5482 160.611 43.5944 160.632 43.6462C160.653 43.6981 160.661 43.7542 160.655 43.8099C160.65 43.8655 160.631 43.919 160.601 43.966L158.009 49.744C157.989 49.8185 157.945 49.8843 157.883 49.9308C157.822 49.9774 157.746 50.0021 157.669 50.001L157.67 50.002Z" fill="black"/>
<path id="Path 16363" d="M162.072 44.333C161.967 44.3374 161.863 44.3016 161.783 44.233C161.747 44.2017 161.719 44.1629 161.699 44.1193C161.68 44.0758 161.671 44.0286 161.672 43.981C161.67 43.9309 161.678 43.8809 161.697 43.8345C161.717 43.7882 161.746 43.7467 161.783 43.713C161.863 43.6433 161.966 43.6074 162.072 43.613H164.032C164.137 43.6089 164.24 43.6446 164.32 43.713C164.357 43.747 164.386 43.7885 164.405 43.8348C164.424 43.8811 164.433 43.931 164.431 43.981C164.432 44.0285 164.422 44.0757 164.403 44.1192C164.384 44.1627 164.356 44.2015 164.32 44.233C164.241 44.3025 164.137 44.3383 164.032 44.333H162.072ZM163.952 48.033C163.682 48.0372 163.418 47.9625 163.19 47.818C162.963 47.6751 162.778 47.4737 162.655 47.235C162.521 46.9784 162.452 46.6926 162.455 46.403V42.403C162.453 42.3475 162.463 42.2923 162.483 42.2407C162.504 42.1891 162.535 42.1422 162.574 42.103C162.657 42.0271 162.766 41.985 162.878 41.985C162.991 41.985 163.1 42.0271 163.183 42.103C163.222 42.1422 163.253 42.1891 163.274 42.2407C163.294 42.2923 163.304 42.3475 163.302 42.403V46.403C163.294 46.6064 163.36 46.8059 163.487 46.965C163.54 47.0359 163.609 47.0933 163.689 47.1326C163.769 47.1719 163.856 47.1919 163.945 47.191H164.234C164.283 47.1906 164.332 47.2009 164.377 47.2213C164.422 47.2417 164.462 47.2716 164.494 47.309C164.566 47.3917 164.604 47.4991 164.6 47.609C164.601 47.6664 164.589 47.7232 164.565 47.7751C164.54 47.8271 164.505 47.8729 164.46 47.909C164.358 47.9904 164.23 48.0323 164.1 48.027H163.946L163.952 48.033Z" fill="black"/>
<path id="Path 16364" d="M166.964 46.367C166.907 46.369 166.85 46.3592 166.797 46.3384C166.743 46.3176 166.695 46.2862 166.654 46.246C166.614 46.206 166.582 46.1581 166.561 46.1052C166.54 46.0524 166.53 45.9958 166.532 45.939V41.908C166.53 41.8507 166.54 41.7936 166.561 41.7403C166.582 41.6869 166.613 41.6385 166.654 41.598C166.74 41.522 166.85 41.4801 166.965 41.4801C167.08 41.4801 167.19 41.522 167.276 41.598C167.316 41.6387 167.347 41.6872 167.368 41.7406C167.388 41.7939 167.398 41.8509 167.395 41.908V45.939C167.397 45.9955 167.387 46.0518 167.367 46.1046C167.346 46.1573 167.315 46.2054 167.276 46.246C167.235 46.2867 167.186 46.3185 167.133 46.3393C167.079 46.3602 167.022 46.3696 166.964 46.367ZM166.964 48.046C166.907 48.048 166.85 48.0382 166.797 48.0174C166.743 47.9966 166.695 47.9652 166.654 47.925C166.614 47.885 166.582 47.8371 166.561 47.7842C166.54 47.7314 166.53 47.6748 166.532 47.618V43.873C166.53 43.8157 166.54 43.7586 166.561 43.7053C166.582 43.652 166.613 43.6035 166.654 43.563C166.74 43.487 166.85 43.4451 166.965 43.4451C167.08 43.4451 167.19 43.487 167.276 43.563C167.316 43.6037 167.347 43.6522 167.368 43.7056C167.388 43.7589 167.398 43.8159 167.395 43.873V47.618C167.397 47.6745 167.387 47.7308 167.367 47.7836C167.346 47.8363 167.315 47.8844 167.276 47.925C167.235 47.9657 167.186 47.9975 167.133 48.0183C167.079 48.0392 167.022 48.0486 166.964 48.046ZM170.446 48.046C170.389 48.0479 170.332 48.0381 170.279 48.0173C170.225 47.9965 170.177 47.9651 170.136 47.925C170.096 47.8849 170.064 47.837 170.043 47.7842C170.022 47.7314 170.012 47.6748 170.014 47.618V45.553C170.026 45.2812 169.965 45.0112 169.837 44.771C169.726 44.5764 169.559 44.4198 169.358 44.322C169.142 44.2212 168.906 44.1709 168.667 44.175C168.445 44.1716 168.224 44.2203 168.024 44.317C167.841 44.4038 167.684 44.5356 167.566 44.7C167.453 44.861 167.393 45.054 167.397 45.251H166.862C166.857 44.9178 166.947 44.5901 167.121 44.306C167.294 44.0276 167.538 43.8002 167.828 43.647C168.138 43.4816 168.485 43.3976 168.837 43.403C169.201 43.3997 169.559 43.4844 169.883 43.65C170.192 43.8151 170.445 44.0681 170.611 44.377C170.799 44.7397 170.892 45.1445 170.879 45.553V47.618C170.881 47.6748 170.871 47.7314 170.85 47.7842C170.829 47.8371 170.797 47.885 170.757 47.925C170.716 47.9652 170.668 47.9966 170.614 48.0174C170.561 48.0382 170.503 48.048 170.446 48.046Z" fill="black"/>
<path id="Path 16365" d="M173.743 42.696C173.67 42.6966 173.597 42.6825 173.529 42.6545C173.462 42.6265 173.4 42.5851 173.349 42.533C173.296 42.4827 173.254 42.422 173.226 42.3547C173.198 42.2874 173.184 42.215 173.185 42.142C173.186 41.9945 173.245 41.8535 173.35 41.7497C173.455 41.6459 173.597 41.5877 173.744 41.588C173.817 41.5873 173.89 41.6013 173.958 41.6293C174.026 41.6573 174.087 41.6987 174.139 41.751C174.192 41.8011 174.234 41.8618 174.262 41.9291C174.291 41.9965 174.305 42.069 174.303 42.142C174.302 42.2895 174.243 42.4305 174.138 42.5343C174.033 42.6381 173.891 42.6963 173.743 42.696ZM173.743 48.036C173.686 48.0379 173.629 48.0281 173.576 48.0073C173.522 47.9865 173.474 47.9551 173.433 47.915C173.393 47.8749 173.361 47.827 173.34 47.7742C173.319 47.7214 173.309 47.6648 173.311 47.608V43.871C173.308 43.8136 173.318 43.7564 173.339 43.7029C173.36 43.6495 173.392 43.6011 173.433 43.561C173.519 43.485 173.629 43.4431 173.744 43.4431C173.859 43.4431 173.969 43.485 174.055 43.561C174.095 43.6017 174.126 43.6502 174.147 43.7036C174.167 43.7569 174.177 43.8139 174.174 43.871V47.608C174.176 47.6645 174.166 47.7208 174.146 47.7736C174.125 47.8263 174.094 47.8744 174.055 47.915C174.014 47.9557 173.965 47.9875 173.912 48.0083C173.858 48.0292 173.801 48.0386 173.743 48.036Z" fill="black"/>
<path id="Path 16366" d="M177.064 48.019C177.007 48.021 176.95 48.0112 176.897 47.9904C176.843 47.9696 176.795 47.9382 176.754 47.898C176.714 47.858 176.682 47.81 176.661 47.7572C176.64 47.7044 176.63 47.6478 176.632 47.591V43.847C176.629 43.7896 176.639 43.7324 176.66 43.6789C176.681 43.6255 176.713 43.5771 176.754 43.537C176.84 43.461 176.95 43.4191 177.065 43.4191C177.18 43.4191 177.29 43.461 177.376 43.537C177.416 43.5777 177.447 43.6262 177.468 43.6796C177.488 43.7329 177.498 43.7899 177.495 43.847V47.592C177.497 47.6485 177.487 47.7049 177.467 47.7576C177.446 47.8104 177.415 47.8584 177.376 47.899C177.335 47.9395 177.286 47.9711 177.233 47.9918C177.179 48.0125 177.122 48.0217 177.064 48.019ZM180.546 48.019C180.489 48.021 180.432 48.0112 180.379 47.9904C180.325 47.9696 180.277 47.9382 180.236 47.898C180.196 47.858 180.164 47.81 180.143 47.7572C180.122 47.7044 180.112 47.6478 180.114 47.591V45.527C180.126 45.2552 180.065 44.9852 179.937 44.745C179.826 44.5503 179.659 44.3938 179.458 44.296C179.242 44.1952 179.006 44.1449 178.767 44.149C178.545 44.1456 178.324 44.1943 178.124 44.291C177.941 44.3778 177.784 44.5096 177.666 44.674C177.552 44.835 177.493 45.028 177.497 45.225H176.962C176.957 44.8917 177.048 44.564 177.222 44.28C177.395 44.0016 177.639 43.7741 177.929 43.621C178.239 43.4556 178.586 43.3716 178.938 43.377C179.301 43.3736 179.66 43.4584 179.984 43.624C180.293 43.7899 180.546 44.0427 180.712 44.351C180.9 44.7138 180.992 45.1186 180.979 45.527V47.592C180.981 47.649 180.971 47.7058 180.95 47.7589C180.929 47.8119 180.897 47.86 180.856 47.9002C180.816 47.9403 180.767 47.9717 180.714 47.9923C180.661 48.0129 180.604 48.0224 180.547 48.02L180.546 48.019Z" fill="black"/>
<path id="Path 16367" d="M185.19 48.02C184.801 48.0295 184.417 47.9292 184.083 47.7306C183.748 47.5319 183.477 47.243 183.299 46.897C183.107 46.5266 183.01 46.1141 183.018 45.697C183.009 45.2736 183.113 44.8555 183.318 44.485C183.514 44.1409 183.799 43.8561 184.144 43.661C184.515 43.456 184.933 43.3525 185.357 43.361C185.777 43.3529 186.191 43.4564 186.557 43.661C186.902 43.8553 187.188 44.1402 187.383 44.485C187.589 44.8553 187.692 45.2735 187.683 45.697H187.183C187.19 46.1116 187.102 46.5223 186.924 46.897C186.766 47.2298 186.522 47.5143 186.217 47.721C185.912 47.9213 185.555 48.0255 185.19 48.02ZM185.344 49.894C184.956 49.8967 184.571 49.8162 184.216 49.658C183.869 49.5031 183.564 49.2676 183.326 48.971C183.291 48.9313 183.266 48.8842 183.252 48.8332C183.238 48.7823 183.236 48.7289 183.246 48.677C183.256 48.6274 183.275 48.5802 183.303 48.5383C183.331 48.4964 183.368 48.4606 183.41 48.433C183.456 48.4006 183.507 48.3778 183.562 48.3661C183.617 48.3544 183.673 48.354 183.728 48.365C183.835 48.3851 183.931 48.4451 183.995 48.533C184.15 48.7243 184.348 48.877 184.572 48.979C184.82 49.0884 185.09 49.1429 185.361 49.139C185.623 49.1409 185.882 49.074 186.11 48.945C186.343 48.8106 186.532 48.612 186.655 48.373C186.797 48.0863 186.866 47.7688 186.855 47.449V46.257L187.136 45.517L187.687 45.693V47.506C187.691 47.9251 187.588 48.3383 187.387 48.706C187.194 49.062 186.909 49.3594 186.561 49.567C186.191 49.7844 185.767 49.8952 185.338 49.887L185.344 49.894ZM185.36 47.265C185.633 47.2706 185.902 47.2014 186.138 47.065C186.362 46.9321 186.545 46.7406 186.668 46.511C186.799 46.2603 186.864 45.9807 186.859 45.698C186.864 45.4134 186.799 45.1319 186.668 44.879C186.547 44.647 186.363 44.4534 186.138 44.32C185.9 44.1874 185.632 44.1178 185.36 44.1178C185.087 44.1178 184.819 44.1874 184.581 44.32C184.355 44.4539 184.17 44.6473 184.046 44.879C183.911 45.1307 183.842 45.4125 183.846 45.698C183.842 45.9817 183.911 46.2617 184.046 46.511C184.17 46.7414 184.355 46.9331 184.581 47.065C184.817 47.2011 185.086 47.2699 185.359 47.264L185.36 47.265Z" fill="black"/>
<path id="Path 16368" d="M190.185 43.462C190.049 43.463 189.918 43.4102 189.82 43.315C189.77 43.2698 189.731 43.2146 189.705 43.1531C189.678 43.0915 189.665 43.025 189.666 42.958C189.664 42.8462 189.678 42.7347 189.708 42.627C189.738 42.5262 189.762 42.4237 189.78 42.32C189.801 42.193 189.799 42.0634 189.775 41.937C189.738 41.7444 189.679 41.5568 189.598 41.378C189.575 41.3388 189.564 41.2941 189.565 41.2488C189.566 41.2035 189.579 41.1593 189.603 41.121C189.622 41.0835 189.652 41.0523 189.689 41.0309C189.725 41.0095 189.767 40.9988 189.809 41C189.869 41.0078 189.926 41.028 189.978 41.0591C190.03 41.0903 190.074 41.1318 190.109 41.181C190.227 41.3195 190.328 41.472 190.409 41.635C190.502 41.8146 190.58 42.0016 190.642 42.194C190.698 42.3551 190.729 42.5236 190.735 42.694C190.742 42.8861 190.692 43.0761 190.592 43.24C190.549 43.3093 190.489 43.366 190.418 43.4043C190.346 43.4426 190.265 43.4611 190.184 43.458L190.185 43.462ZM191.456 43.462C191.32 43.463 191.189 43.4102 191.091 43.315C191.041 43.2698 191.002 43.2146 190.976 43.1531C190.949 43.0915 190.936 43.025 190.937 42.958C190.935 42.8462 190.949 42.7347 190.979 42.627C191.009 42.5262 191.033 42.4237 191.05 42.32C191.07 42.1929 191.068 42.0635 191.045 41.937C191.008 41.7444 190.949 41.5567 190.868 41.378C190.845 41.3388 190.834 41.2941 190.835 41.2488C190.836 41.2035 190.849 41.1593 190.873 41.121C190.892 41.0835 190.922 41.0523 190.959 41.0309C190.995 41.0095 191.037 40.9988 191.079 41C191.139 41.0078 191.196 41.028 191.248 41.0591C191.3 41.0903 191.344 41.1318 191.379 41.181C191.497 41.3195 191.598 41.472 191.679 41.635C191.772 41.8146 191.85 42.0016 191.912 42.194C191.969 42.3547 192 42.5235 192.005 42.694C192.012 42.8861 191.963 43.0761 191.862 43.24C191.819 43.3093 191.759 43.366 191.688 43.4043C191.616 43.4426 191.535 43.4611 191.454 43.458L191.456 43.462Z" fill="black"/>
</g>
</g>
</g>
</g>
</g>
<g id="mainlogo">
<g id="logo">
<path id="Path 16339" d="M9.653 55.534C9.07676 55.5341 8.51222 55.3713 8.02449 55.0645C7.53676 54.7576 7.14569 54.3191 6.89638 53.7996C6.64708 53.2801 6.54968 52.7007 6.61543 52.1282C6.68119 51.5557 6.9074 51.0135 7.268 50.564L12.702 43.794C13.2092 43.1611 13.9471 42.7555 14.7533 42.6666C15.5596 42.5777 16.3681 42.8128 17.001 43.32C17.6339 43.8272 18.0395 44.5651 18.1284 45.3713C18.2172 46.1775 17.9822 46.9861 17.475 47.619L12.041 54.389C11.7545 54.7469 11.391 55.0357 10.9776 55.2339C10.5642 55.4321 10.1115 55.5347 9.653 55.534Z" fill="#00B2CA"/>
<path id="Path 16340" d="M31.759 33.807C29.9545 33.8061 28.1792 33.351 26.5968 32.4837C25.0144 31.6165 23.6757 30.3649 22.7041 28.8443C21.7325 27.3237 21.1592 25.583 21.0371 23.7826C20.915 21.9822 21.2479 20.1801 22.0053 18.5422C22.7627 16.9044 23.9201 15.4835 25.3709 14.4104C26.8217 13.3374 28.5193 12.6468 30.3072 12.4022C32.095 12.1576 33.9157 12.367 35.6014 13.0109C37.2871 13.6549 38.7836 14.7127 39.953 16.087C40.3352 16.5351 40.5302 17.1132 40.4974 17.7012C40.4646 18.2893 40.2066 18.8421 39.777 19.245L35.526 23.235C35.0828 23.6516 34.4923 23.8752 33.8843 23.8564C33.2763 23.8377 32.7007 23.5782 32.284 23.135C31.8673 22.6918 31.6438 22.1013 31.6626 21.4933C31.6813 20.8853 31.9408 20.3097 32.384 19.893L34.757 17.665C33.7357 17.0975 32.5742 16.8319 31.4077 16.8991C30.2413 16.9663 29.1179 17.3635 28.1685 18.0445C27.2191 18.7255 26.4827 19.6622 26.0451 20.7455C25.6075 21.8289 25.4867 23.0142 25.6968 24.1636C25.9068 25.3129 26.4391 26.3789 27.2317 27.2374C28.0242 28.0959 29.0443 28.7115 30.1732 29.0126C31.3022 29.3137 32.4934 29.2879 33.6082 28.9381C34.723 28.5884 35.7154 27.929 36.47 27.037C36.8683 26.5909 37.425 26.318 38.0216 26.2764C38.6181 26.2348 39.2073 26.4278 39.6637 26.8143C40.12 27.2007 40.4074 27.7501 40.4646 28.3454C40.5219 28.9406 40.3444 29.5347 39.97 30.001C38.96 31.1948 37.7016 32.1538 36.2828 32.8111C34.8639 33.4685 33.3187 33.8083 31.755 33.807H31.759Z" fill="#F96D52"/>
<path id="Path 16341" d="M31.51 45.422C27.7377 45.4197 24.0267 44.4681 20.7188 42.6548C17.4109 40.8415 14.6126 38.2249 12.5816 35.046C10.5506 31.8672 9.35231 28.2283 9.09712 24.4646C8.84192 20.701 9.53803 16.9337 11.1213 13.5097C12.7046 10.0858 15.1241 7.11536 18.1569 4.87214C21.1898 2.62893 24.7384 1.18507 28.4758 0.673585C32.2133 0.162101 36.0193 0.599447 39.5434 1.94533C43.0674 3.29121 46.196 5.50234 48.641 8.375C49.1668 8.99295 49.4256 9.79447 49.3604 10.6032C49.2952 11.412 48.9115 12.1617 48.2935 12.6875C47.6755 13.2133 46.874 13.4721 46.0653 13.4069C45.2565 13.3417 44.5068 12.958 43.981 12.34C41.8098 9.78765 38.9074 7.96333 35.666 7.11355C32.4247 6.26378 29.0006 6.42952 25.8564 7.58837C22.7123 8.74722 19.9997 10.8433 18.0851 13.5934C16.1706 16.3435 15.1464 19.6151 15.151 22.966C15.1556 26.3169 16.1887 29.5856 18.1108 32.3305C20.0328 35.0754 22.7512 37.164 25.8985 38.3143C29.0458 39.4645 32.4704 39.6208 35.7094 38.7622C38.9484 37.9035 41.8458 36.0713 44.01 33.513C44.5343 32.8937 45.2832 32.5081 46.0919 32.441C46.9005 32.3738 47.7027 32.6307 48.322 33.155C48.9413 33.6793 49.3269 34.4282 49.394 35.2369C49.4612 36.0455 49.2043 36.8477 48.68 37.467C46.5686 39.9623 43.9383 41.9669 40.9724 43.341C38.0066 44.7151 34.7767 45.4256 31.508 45.423L31.51 45.422Z" fill="#00B2CA"/>
</g>
</g>
</g>
</svg>
