<svg xmlns="http://www.w3.org/2000/svg" xmlns:xlink="http://www.w3.org/1999/xlink" width="250" height="250" viewBox="0 0 250 250">
  <defs>
    <clipPath id="clip-path">
      <circle id="Ellipse_336" data-name="Ellipse 336" cx="125" cy="125" r="125" transform="translate(-15798 21613)" fill="#fff" stroke="#707070" stroke-width="1"/>
    </clipPath>
    <clipPath id="clip-path-2">
      <path id="Path_16338" data-name="Path 16338" d="M0,0V250H500V0Z" stroke="#707070" stroke-width="4.167"/>
    </clipPath>
    <clipPath id="clip-path-3">
      <path id="Path_16335" data-name="Path 16335" d="M250,125H500V250Zm0,0V250H0Zm0,0H0V0Zm0,0V0H500Z" stroke="#707070" stroke-width="4.167"/>
    </clipPath>
  </defs>
  <g id="english" transform="translate(15798 -21613)">
    <g id="Mask_Group_94" data-name="Mask Group 94" clip-path="url(#clip-path)">
      <g id="Flag_of_the_United_Kingdom__1-2_1_" data-name="Flag_of_the_United_Kingdom_(1-2) (1)" transform="translate(-15923 21613)" clip-path="url(#clip-path-2)">
        <path id="Path_16332" data-name="Path 16332" d="M0,0V250H500V0Z" fill="#012169" stroke="#707070" stroke-width="4.167"/>
        <path id="Path_16333" data-name="Path 16333" d="M0,0,500,250M500,0,0,250" stroke="#fff" stroke-width="25"/>
        <g id="Group_17594" data-name="Group 17594" clip-path="url(#clip-path-3)">
          <path id="Path_16334" data-name="Path 16334" d="M0,0,500,250M500,0,0,250" stroke="#c8102e" stroke-width="16.667"/>
        </g>
        <path id="Path_16336" data-name="Path 16336" d="M250,0V250M0,125H500" stroke="#fff" stroke-width="41.667"/>
        <path id="Path_16337" data-name="Path 16337" d="M250,0V250M0,125H500" stroke="#c8102e" stroke-width="25"/>
      </g>
    </g>
  </g>
</svg>
